<?xml version="1.0" encoding="UTF-8" standalone="no"?>
<!-- Uploaded to: SVG Repo, www.svgrepo.com, Generator: SVG Repo Mixer Tools -->

<svg
   fill="#000000"
   version="1.1"
   id="Layer_1"
   width="800px"
   height="800px"
   viewBox="0 0 260 260"
   xml:space="preserve"
   sodipodi:docname="agriculture.svg"
   inkscape:version="1.1 (c68e22c387, 2021-05-23)"
   xmlns:inkscape="http://www.inkscape.org/namespaces/inkscape"
   xmlns:sodipodi="http://sodipodi.sourceforge.net/DTD/sodipodi-0.dtd"
   xmlns="http://www.w3.org/2000/svg"
   xmlns:svg="http://www.w3.org/2000/svg"><defs
   id="defs7" /><sodipodi:namedview
   id="namedview5"
   pagecolor="#ffffff"
   bordercolor="#666666"
   borderopacity="1.0"
   inkscape:pageshadow="2"
   inkscape:pageopacity="0.0"
   inkscape:pagecheckerboard="0"
   showgrid="false"
   inkscape:zoom="0.36415999"
   inkscape:cx="185.35809"
   inkscape:cy="-26.087435"
   inkscape:window-width="1920"
   inkscape:window-height="1009"
   inkscape:window-x="-8"
   inkscape:window-y="-8"
   inkscape:window-maximized="1"
   inkscape:current-layer="Layer_1" />
<path
   d="m 177.62619,204.36303 c -2.3,-2.30001 1.7,-9.9 8.99999,-17.2 7.20001,-7.20001 14.90001,-11.2 17.20001,-9 2.3,2.19999 -1.7,9.89999 -9,17.2 -7.29999,7.3 -14.9,11.29999 -17.2,9 z m 70.99999,16.5 c 2.70002,2.69999 -1.29999,10.89999 -8.79998,18.5 -7.50002,7.6 -15.80002,11.5 -18.50001,8.8 -0.50001,-0.5 -0.7,-1.10001 -0.8,-1.90001 -27.1,17.40001 -61,16.20001 -82.10001,-4.7 -0.89999,-0.99999 -1.69999,-2.1 -2.39999,-3.2 -7.3,3.30001 -15.49999,5.90001 -24.2,7.9 0.0999,0.4 0.19999,2.90001 0.19999,3.20001 0,4.89999 -11.09999,8.8 -24.699999,8.8 -13.600001,0 -24.7,-3.90001 -24.7,-8.8 0,-0.40001 0.100002,-2.90001 0.2,-3.20001 -35.400001,-8 -61.2000003,-27.09999 -61.2000003,-59.5 0,-44.79999 58.2000003,-65.8 67.0999993,-85.69998 7.800002,-17.400011 -15.2,-66.000012 -15.2,-66.000012 l 22.3,22.1 c 0,0 3.100001,-38.900001 26.90001,-54.900001 -1.5,12.4 -9.70001,21.400001 -5.600011,52.900001 8.000011,-19.500001 23.800011,-26.7 23.800011,-26.7 0,0 -23.800011,56.3 -15,72.600012 8.59999,15.99999 41.2,31.19998 57.5,55.99999 27.5,-25.4 60.5,-33.2 77.4,-18.00001 20.5,20.80001 22,54 5.4,80.90001 1,0.10004 1.8,0.29999 2.39999,0.9 z m -76,-30 c -0.69999,10.79999 -4.29999,19.99999 -10.09999,27.6 0.2,0.3 0.3,0.49999 0.49999,0.7 4.00001,3.99999 20.70001,-0.90001 37.60001,-17.80001 16.89999,-16.9 21.9,-33.59999 17.80001,-37.59999 -0.90002,-0.9 -2.40001,-1.3 -4.30001,-1.3 -2.40001,0 -5.5,0.7 -9,2.1 -7.8,3.09999 -16.50001,9.19999 -24.30001,17.1 -3.09999,3 -5.79999,6.09999 -8.2,9.2 z m 62.20001,-43.7 c -3.9,-3.9 -9.6,-5.8 -16.2,-5.8 -14.6,0 -33.9,8.99999 -50.2,24.79999 1.5,3.3 2.59999,6.8 3.3,10.40001 0.7,-0.70001 1.3,-1.4 2,-2.10001 8.8,-8.79999 18.69999,-15.69999 27.69999,-19.3 10.40001,-4.19999 18.9,-3.59999 24.00001,1.40002 9.69999,9.69999 2,31.89999 -17.8,51.69999 -14.00001,14.1 -29.30001,22 -40.5,22 -4.6,0 -8.5,-1.30001 -11.3,-4.20001 -0.10005,-0.0999 -0.2,-0.19999 -0.3,-0.4 -3.2,2.9 -6.80001,5.50001 -10.7,7.8 0.5,0.60001 1,1.30001 1.6,1.80001 12.9,12.9 44,3.49999 67.9,-20.40001 12.1,-12.09999 20.79999,-26.19999 24.49999,-39.49999 3.50002,-12.2 2.00001,-22.3 -3.99999,-28.2 z"
   id="path2"
   style="stroke-width:1" />
</svg>
