<?xml version="1.0" encoding="UTF-8" standalone="no"?>
<svg
   width="700pt"
   height="700pt"
   version="1.1"
   viewBox="0 0 700 700"
   id="svg160"
   sodipodi:docname="culture.svg"
   inkscape:version="1.1 (c68e22c387, 2021-05-23)"
   xmlns:inkscape="http://www.inkscape.org/namespaces/inkscape"
   xmlns:sodipodi="http://sodipodi.sourceforge.net/DTD/sodipodi-0.dtd"
   xmlns="http://www.w3.org/2000/svg"
   xmlns:svg="http://www.w3.org/2000/svg">
  <sodipodi:namedview
     id="namedview162"
     pagecolor="#ffffff"
     bordercolor="#666666"
     borderopacity="1.0"
     inkscape:pageshadow="2"
     inkscape:pageopacity="0.0"
     inkscape:pagecheckerboard="0"
     inkscape:document-units="pt"
     showgrid="false"
     inkscape:zoom="0.44142857"
     inkscape:cx="158.57605"
     inkscape:cy="524.43366"
     inkscape:window-width="1920"
     inkscape:window-height="1009"
     inkscape:window-x="-8"
     inkscape:window-y="-8"
     inkscape:window-maximized="1"
     inkscape:current-layer="svg160" />
  <defs
     id="defs68">
    <symbol
       id="v"
       overflow="visible">
      <path
         d="m3.6562-0.21875c-0.1875 0.09375-0.38672 0.16797-0.59375 0.21875-0.19922 0.050781-0.40625 0.078125-0.625 0.078125-0.66797 0-1.1992-0.17969-1.5938-0.54688-0.38672-0.375-0.57812-0.87891-0.57812-1.5156 0-0.64453 0.19141-1.1484 0.57812-1.5156 0.39453-0.375 0.92578-0.5625 1.5938-0.5625 0.21875 0 0.42578 0.027344 0.625 0.078125 0.20703 0.054687 0.40625 0.125 0.59375 0.21875v0.82812c-0.1875-0.125-0.375-0.21875-0.5625-0.28125-0.17969-0.0625-0.37109-0.09375-0.57812-0.09375-0.36719 0-0.65625 0.12109-0.875 0.35938-0.21094 0.23047-0.3125 0.55469-0.3125 0.96875 0 0.40625 0.10156 0.73047 0.3125 0.96875 0.21875 0.23047 0.50781 0.34375 0.875 0.34375 0.20703 0 0.39844-0.023437 0.57812-0.078125 0.1875-0.0625 0.375-0.16016 0.5625-0.29688z"
         id="path2" />
    </symbol>
    <symbol
       id="c"
       overflow="visible">
      <path
         d="m2.6875-2.1719c-0.085938-0.039063-0.16797-0.070313-0.25-0.09375-0.085938-0.019531-0.16797-0.03125-0.25-0.03125-0.25 0-0.44531 0.085937-0.57812 0.25-0.125 0.15625-0.1875 0.38281-0.1875 0.67188v1.375h-0.96875v-2.9844h0.96875v0.48438c0.11328-0.19531 0.25-0.33594 0.40625-0.42188 0.16406-0.09375 0.35938-0.14062 0.57812-0.14062h0.10938c0.039063 0 0.09375 0.007812 0.15625 0.015625z"
         id="path5" />
    </symbol>
    <symbol
       id="b"
       overflow="visible">
      <path
         d="m3.4375-1.5v0.26562h-2.2344c0.03125 0.23047 0.11328 0.40234 0.25 0.51562 0.13281 0.10547 0.32812 0.15625 0.57812 0.15625 0.20703 0 0.41406-0.023438 0.625-0.078125 0.20703-0.0625 0.42188-0.15625 0.64062-0.28125v0.73438c-0.21875 0.09375-0.44531 0.16406-0.67188 0.20312-0.23047 0.039062-0.45312 0.0625-0.67188 0.0625-0.54297 0-0.96484-0.13281-1.2656-0.40625-0.30469-0.28125-0.45312-0.67188-0.45312-1.1719 0-0.47656 0.14453-0.85938 0.4375-1.1406 0.30078-0.28125 0.70703-0.42188 1.2188-0.42188 0.46875 0 0.84375 0.14062 1.125 0.42188s0.42188 0.66406 0.42188 1.1406zm-0.96875-0.32812c0-0.17578-0.058594-0.31641-0.17188-0.42188-0.10547-0.11328-0.24219-0.17188-0.40625-0.17188-0.1875 0-0.33984 0.054687-0.45312 0.15625-0.11719 0.10547-0.1875 0.25-0.21875 0.4375z"
         id="path8" />
    </symbol>
    <symbol
       id="f"
       overflow="visible">
      <path
         d="m1.7969-1.3438c-0.19922 0-0.35156 0.039062-0.45312 0.10938-0.09375 0.0625-0.14062 0.16406-0.14062 0.29688 0 0.11719 0.035156 0.21094 0.10938 0.28125 0.082031 0.0625 0.19531 0.09375 0.34375 0.09375 0.17578 0 0.32812-0.0625 0.45312-0.1875s0.1875-0.28516 0.1875-0.48438v-0.10938zm1.4688-0.35938v1.7031h-0.96875v-0.4375c-0.125 0.17969-0.27344 0.30859-0.4375 0.39062-0.15625 0.082031-0.35156 0.125-0.57812 0.125-0.3125 0-0.57031-0.085938-0.76562-0.26562-0.1875-0.1875-0.28125-0.42188-0.28125-0.70312 0-0.35156 0.11719-0.61328 0.35938-0.78125 0.23828-0.16406 0.61719-0.25 1.1406-0.25h0.5625v-0.0625c0-0.15625-0.0625-0.26562-0.1875-0.32812-0.11719-0.070312-0.29688-0.10938-0.54688-0.10938-0.21094 0-0.40234 0.023437-0.57812 0.0625-0.17969 0.042969-0.33984 0.10156-0.48438 0.17188v-0.71875c0.19531-0.050781 0.39844-0.085938 0.60938-0.10938 0.20703-0.03125 0.41406-0.046875 0.625-0.046875 0.53906 0 0.92969 0.10938 1.1719 0.32812 0.23828 0.21094 0.35938 0.55469 0.35938 1.0312z"
         id="path11" />
    </symbol>
    <symbol
       id="d"
       overflow="visible">
      <path
         d="m1.5-3.8438v0.85938h0.98438v0.67188h-0.98438v1.2812c0 0.13672 0.023438 0.23047 0.078125 0.28125 0.0625 0.042969 0.17578 0.0625 0.34375 0.0625h0.48438v0.6875h-0.8125c-0.38672 0-0.65625-0.078125-0.8125-0.23438s-0.23438-0.42188-0.23438-0.79688v-1.2812h-0.46875v-0.67188h0.46875v-0.85938z"
         id="path14" />
    </symbol>
    <symbol
       id="j"
       overflow="visible">
      <path
         d="m2.5-2.5469v-1.6094h0.95312v4.1562h-0.95312v-0.4375c-0.13672 0.17969-0.28125 0.30859-0.4375 0.39062-0.15625 0.082031-0.33984 0.125-0.54688 0.125-0.375 0-0.68359-0.14453-0.92188-0.4375-0.23047-0.28906-0.34375-0.67188-0.34375-1.1406 0-0.45703 0.11328-0.83203 0.34375-1.125 0.23828-0.28906 0.54688-0.4375 0.92188-0.4375 0.19531 0 0.375 0.042969 0.53125 0.125 0.16406 0.085938 0.31641 0.21484 0.45312 0.39062zm-0.64062 1.9375c0.20703 0 0.36328-0.070313 0.46875-0.21875 0.11328-0.15625 0.17188-0.37891 0.17188-0.67188 0-0.28125-0.058594-0.49219-0.17188-0.64062-0.10547-0.15625-0.26172-0.23438-0.46875-0.23438-0.19922 0-0.35547 0.078125-0.46875 0.23438-0.10547 0.14844-0.15625 0.35938-0.15625 0.64062 0 0.29297 0.050781 0.51562 0.15625 0.67188 0.11328 0.14844 0.26953 0.21875 0.46875 0.21875z"
         id="path17" />
    </symbol>
    <symbol
       id="i"
       overflow="visible">
      <path
         d="m2.0469-0.60938c0.20703 0 0.36328-0.070313 0.46875-0.21875 0.11328-0.15625 0.17188-0.37891 0.17188-0.67188 0-0.28125-0.058594-0.49219-0.17188-0.64062-0.10547-0.15625-0.26172-0.23438-0.46875-0.23438-0.19922 0-0.35547 0.078125-0.46875 0.23438-0.10547 0.14844-0.15625 0.35938-0.15625 0.64062 0 0.29297 0.050781 0.51562 0.15625 0.67188 0.11328 0.14844 0.26953 0.21875 0.46875 0.21875zm-0.625-1.9375c0.125-0.17578 0.26562-0.30469 0.42188-0.39062 0.16406-0.082031 0.35156-0.125 0.5625-0.125 0.36328 0 0.66406 0.14844 0.90625 0.4375 0.23828 0.29297 0.35938 0.66797 0.35938 1.125 0 0.46875-0.12109 0.85156-0.35938 1.1406-0.24219 0.29297-0.54297 0.4375-0.90625 0.4375-0.21094 0-0.39844-0.042969-0.5625-0.125-0.15625-0.082031-0.29688-0.21094-0.42188-0.39062v0.4375h-0.96875v-4.1562h0.96875z"
         id="path20" />
    </symbol>
    <symbol
       id="h"
       overflow="visible">
      <path
         d="m0.0625-2.9844h0.95312l0.8125 2.0156 0.6875-2.0156h0.95312l-1.2656 3.2656c-0.125 0.33203-0.27344 0.56641-0.4375 0.70312-0.16797 0.13281-0.39062 0.20312-0.67188 0.20312h-0.54688v-0.64062h0.29688c0.16406 0 0.28516-0.027344 0.35938-0.078125 0.070313-0.054688 0.12891-0.14062 0.17188-0.26562l0.03125-0.09375z"
         id="path23" />
    </symbol>
    <symbol
       id="g"
       overflow="visible">
      <path
         d="m1.4219-0.4375v1.5781h-0.96875v-4.125h0.96875v0.4375c0.125-0.17578 0.26562-0.30469 0.42188-0.39062 0.16406-0.082031 0.35156-0.125 0.5625-0.125 0.36328 0 0.66406 0.14844 0.90625 0.4375 0.23828 0.29297 0.35938 0.66797 0.35938 1.125 0 0.46875-0.12109 0.85156-0.35938 1.1406-0.24219 0.29297-0.54297 0.4375-0.90625 0.4375-0.21094 0-0.39844-0.042969-0.5625-0.125-0.15625-0.082031-0.29688-0.21094-0.42188-0.39062zm0.625-1.9375c-0.19922 0-0.35547 0.078125-0.46875 0.23438-0.10547 0.14844-0.15625 0.35938-0.15625 0.64062 0 0.29297 0.050781 0.51562 0.15625 0.67188 0.11328 0.14844 0.26953 0.21875 0.46875 0.21875 0.20703 0 0.36328-0.070313 0.46875-0.21875 0.11328-0.15625 0.17188-0.37891 0.17188-0.67188 0-0.28125-0.058594-0.49219-0.17188-0.64062-0.10547-0.15625-0.26172-0.23438-0.46875-0.23438z"
         id="path26" />
    </symbol>
    <symbol
       id="a"
       overflow="visible">
      <path
         d="m1.875-2.375c-0.21094 0-0.37109 0.078125-0.48438 0.23438-0.10547 0.14844-0.15625 0.35938-0.15625 0.64062 0 0.29297 0.050781 0.51562 0.15625 0.67188 0.11328 0.14844 0.27344 0.21875 0.48438 0.21875 0.20703 0 0.36719-0.070313 0.48438-0.21875 0.11328-0.15625 0.17188-0.37891 0.17188-0.67188 0-0.28125-0.058594-0.49219-0.17188-0.64062-0.11719-0.15625-0.27734-0.23438-0.48438-0.23438zm0-0.6875c0.51953 0 0.92188 0.14062 1.2031 0.42188 0.28906 0.27344 0.4375 0.65234 0.4375 1.1406 0 0.5-0.14844 0.89062-0.4375 1.1719-0.28125 0.27344-0.68359 0.40625-1.2031 0.40625-0.51172 0-0.91406-0.13281-1.2031-0.40625-0.29297-0.28125-0.4375-0.67188-0.4375-1.1719 0-0.48828 0.14453-0.86719 0.4375-1.1406 0.28906-0.28125 0.69141-0.42188 1.2031-0.42188z"
         id="path29" />
    </symbol>
    <symbol
       id="e"
       overflow="visible">
      <path
         d="m3.4688-1.8281v1.8281h-0.96875v-1.3906c0-0.25781-0.007812-0.4375-0.015625-0.53125-0.011719-0.10156-0.03125-0.17578-0.0625-0.21875-0.03125-0.0625-0.085937-0.10938-0.15625-0.14062-0.0625-0.039062-0.13281-0.0625-0.20312-0.0625-0.21094 0-0.37109 0.078125-0.48438 0.23438-0.10547 0.15625-0.15625 0.37109-0.15625 0.64062v1.4688h-0.96875v-2.9844h0.96875v0.4375c0.13281-0.17578 0.28516-0.30469 0.45312-0.39062 0.16406-0.082031 0.34375-0.125 0.53125-0.125 0.34375 0 0.60156 0.10938 0.78125 0.32812 0.1875 0.21094 0.28125 0.51172 0.28125 0.90625z"
         id="path32" />
    </symbol>
    <symbol
       id="u"
       overflow="visible">
      <path
         d="m2.5-0.5c-0.13672 0.16797-0.28125 0.29297-0.4375 0.375-0.15625 0.085938-0.33984 0.125-0.54688 0.125-0.36719 0-0.66797-0.14062-0.90625-0.42188-0.24219-0.28906-0.35938-0.66016-0.35938-1.1094 0-0.44531 0.11719-0.8125 0.35938-1.0938 0.23828-0.28906 0.53906-0.4375 0.90625-0.4375 0.20703 0 0.39062 0.042969 0.54688 0.125 0.15625 0.085938 0.30078 0.21484 0.4375 0.39062v-0.4375h0.95312v2.6875c0 0.47656-0.15234 0.84375-0.45312 1.0938-0.30469 0.25781-0.74609 0.39062-1.3281 0.39062-0.17969 0-0.35547-0.015625-0.53125-0.046875-0.17969-0.03125-0.35547-0.078125-0.53125-0.14062v-0.73438c0.16406 0.09375 0.32812 0.16016 0.48438 0.20312 0.16406 0.050781 0.33203 0.078125 0.5 0.078125 0.3125 0 0.53906-0.070313 0.6875-0.20312 0.14453-0.13672 0.21875-0.34766 0.21875-0.64062zm-0.64062-1.875c-0.19922 0-0.35547 0.074219-0.46875 0.21875-0.10547 0.14844-0.15625 0.35547-0.15625 0.625 0 0.27344 0.050781 0.48047 0.15625 0.625 0.11328 0.14844 0.26953 0.21875 0.46875 0.21875 0.19531 0 0.35156-0.070312 0.46875-0.21875 0.11328-0.14453 0.17188-0.35156 0.17188-0.625 0-0.26953-0.058594-0.47656-0.17188-0.625-0.11719-0.14453-0.27344-0.21875-0.46875-0.21875z"
         id="path35" />
    </symbol>
    <symbol
       id="t"
       overflow="visible">
      <path
         d="m2.7969-2.8906v0.71875c-0.21094-0.082031-0.40625-0.14453-0.59375-0.1875-0.1875-0.039063-0.37109-0.0625-0.54688-0.0625-0.17969 0-0.3125 0.023437-0.40625 0.0625-0.085938 0.042969-0.125 0.10938-0.125 0.20312 0 0.085938 0.03125 0.14844 0.09375 0.1875 0.070312 0.042969 0.19531 0.074219 0.375 0.09375l0.15625 0.015625c0.48828 0.0625 0.81641 0.16797 0.98438 0.3125 0.17578 0.13672 0.26562 0.35938 0.26562 0.67188s-0.12109 0.55469-0.35938 0.71875c-0.23047 0.15625-0.57812 0.23438-1.0469 0.23438-0.19922 0-0.40625-0.015625-0.625-0.046875-0.21094-0.03125-0.42188-0.078125-0.64062-0.14062v-0.71875c0.1875 0.085937 0.37891 0.15234 0.57812 0.20312 0.20703 0.042969 0.41406 0.0625 0.625 0.0625 0.1875 0 0.32812-0.023438 0.42188-0.078125 0.09375-0.050781 0.14062-0.125 0.14062-0.21875s-0.039062-0.16016-0.10938-0.20312c-0.0625-0.039062-0.1875-0.070312-0.375-0.09375l-0.17188-0.015625c-0.42969-0.050781-0.73047-0.14844-0.90625-0.29688-0.16797-0.14453-0.25-0.36328-0.25-0.65625 0-0.32031 0.10938-0.55469 0.32812-0.70312 0.21875-0.15625 0.55078-0.23438 1-0.23438 0.17578 0 0.35938 0.015625 0.54688 0.046875 0.19531 0.023437 0.41016 0.0625 0.64062 0.125z"
         id="path38" />
    </symbol>
    <symbol
       id="s"
       overflow="visible">
      <path
         d="m0.45312-4.1562h0.96875v2.2656l1.0938-1.0938h1.1094l-1.4531 1.3594 1.5625 1.625h-1.1562l-1.1562-1.25v1.25h-0.96875z"
         id="path41" />
    </symbol>
    <symbol
       id="r"
       overflow="visible">
      <path
         d="m2.4219-4.1562v0.625h-0.51562c-0.13672 0-0.23438 0.027344-0.29688 0.078125-0.054687 0.054687-0.078125 0.13672-0.078125 0.25v0.21875h0.82812v0.67188h-0.82812v2.3125h-0.95312v-2.3125h-0.46875v-0.67188h0.46875v-0.21875c0-0.32031 0.085937-0.5625 0.26562-0.71875 0.1875-0.15625 0.47266-0.23438 0.85938-0.23438z"
         id="path44" />
    </symbol>
    <symbol
       id="q"
       overflow="visible">
      <path
         d="m3.2344-2.5c0.11328-0.17578 0.25391-0.3125 0.42188-0.40625 0.16406-0.10156 0.35156-0.15625 0.5625-0.15625 0.33203 0 0.58594 0.10938 0.76562 0.32812 0.1875 0.21094 0.28125 0.51172 0.28125 0.90625v1.8281h-0.96875v-1.5625c0.007813-0.019531 0.015625-0.039062 0.015625-0.0625v-0.10938c0-0.21875-0.03125-0.375-0.09375-0.46875s-0.16406-0.14062-0.29688-0.14062c-0.1875 0-0.33594 0.078125-0.4375 0.23438-0.09375 0.14844-0.14062 0.35938-0.14062 0.64062v1.4688h-0.96875v-1.5625c0-0.33203-0.03125-0.54688-0.09375-0.64062-0.054688-0.09375-0.15234-0.14062-0.29688-0.14062-0.17969 0-0.32031 0.078125-0.42188 0.23438-0.09375 0.14844-0.14062 0.35938-0.14062 0.64062v1.4688h-0.96875v-2.9844h0.96875v0.4375c0.11328-0.17578 0.24219-0.30469 0.39062-0.39062 0.15625-0.082031 0.32812-0.125 0.51562-0.125 0.20703 0 0.39062 0.054688 0.54688 0.15625 0.15625 0.09375 0.27344 0.23047 0.35938 0.40625z"
         id="path47" />
    </symbol>
    <symbol
       id="p"
       overflow="visible">
      <path
         d="m3.4688-1.8281v1.8281h-0.96875v-1.3906c0-0.25781-0.007812-0.4375-0.015625-0.53125-0.011719-0.10156-0.03125-0.17578-0.0625-0.21875-0.03125-0.0625-0.085937-0.10938-0.15625-0.14062-0.0625-0.039062-0.13281-0.0625-0.20312-0.0625-0.21094 0-0.37109 0.078125-0.48438 0.23438-0.10547 0.15625-0.15625 0.37109-0.15625 0.64062v1.4688h-0.96875v-4.1562h0.96875v1.6094c0.13281-0.17578 0.28516-0.30469 0.45312-0.39062 0.16406-0.082031 0.34375-0.125 0.53125-0.125 0.34375 0 0.60156 0.10938 0.78125 0.32812 0.1875 0.21094 0.28125 0.51172 0.28125 0.90625z"
         id="path50" />
    </symbol>
    <symbol
       id="o"
       overflow="visible">
      <path
         d="m0.5-3.9844h1.1562l1.4375 2.7344v-2.7344h0.98438v3.9844h-1.1562l-1.4375-2.7344v2.7344h-0.98438z"
         id="path53" />
    </symbol>
    <symbol
       id="n"
       overflow="visible">
      <path
         d="m0.42188-1.1719v-1.8125h0.96875v0.29688 0.60938 0.48438c0 0.24219 0.003906 0.41797 0.015625 0.53125 0.007812 0.10547 0.03125 0.17969 0.0625 0.21875 0.039062 0.0625 0.09375 0.11719 0.15625 0.15625 0.0625 0.03125 0.13281 0.046875 0.21875 0.046875 0.19531 0 0.35156-0.078125 0.46875-0.23438 0.11328-0.15625 0.17188-0.36719 0.17188-0.64062v-1.4688h0.95312v2.9844h-0.95312v-0.4375c-0.14844 0.17969-0.30469 0.30859-0.46875 0.39062-0.15625 0.082031-0.33594 0.125-0.53125 0.125-0.34375 0-0.60938-0.10156-0.79688-0.3125-0.17969-0.21875-0.26562-0.53125-0.26562-0.9375z"
         id="path56" />
    </symbol>
    <symbol
       id="m"
       overflow="visible">
      <path
         d="m0.5-3.9844h1.7031c0.50781 0 0.89844 0.11719 1.1719 0.34375 0.26953 0.21875 0.40625 0.53906 0.40625 0.95312 0 0.41797-0.13672 0.74219-0.40625 0.96875-0.27344 0.21875-0.66406 0.32812-1.1719 0.32812h-0.67188v1.3906h-1.0312zm1.0312 0.75v1.1094h0.5625c0.19531 0 0.34766-0.046875 0.45312-0.14062 0.11328-0.10156 0.17188-0.24219 0.17188-0.42188 0-0.17578-0.058594-0.3125-0.17188-0.40625-0.10547-0.09375-0.25781-0.14062-0.45312-0.14062z"
         id="path59" />
    </symbol>
    <symbol
       id="l"
       overflow="visible">
      <path
         d="m0.45312-2.9844h0.96875v2.9375c0 0.39453-0.10156 0.69531-0.29688 0.90625-0.1875 0.21875-0.46484 0.32812-0.82812 0.32812h-0.48438v-0.64062h0.17188c0.17578 0 0.29688-0.042969 0.35938-0.125 0.070312-0.074219 0.10938-0.23047 0.10938-0.46875zm0-1.1719h0.96875v0.78125h-0.96875z"
         id="path62" />
    </symbol>
    <symbol
       id="k"
       overflow="visible">
      <path
         d="m2.875-2.8906v0.76562c-0.125-0.082031-0.25781-0.14453-0.39062-0.1875-0.13672-0.039062-0.27344-0.0625-0.40625-0.0625-0.27344 0-0.48047 0.078125-0.625 0.23438-0.14844 0.15625-0.21875 0.37109-0.21875 0.64062 0 0.28125 0.070313 0.5 0.21875 0.65625 0.14453 0.15625 0.35156 0.23438 0.625 0.23438 0.14453 0 0.28516-0.019531 0.42188-0.0625 0.13281-0.039063 0.25781-0.10938 0.375-0.20312v0.78125c-0.14844 0.0625-0.29688 0.10156-0.45312 0.125-0.15625 0.03125-0.3125 0.046875-0.46875 0.046875-0.54297 0-0.96484-0.13281-1.2656-0.40625-0.30469-0.28125-0.45312-0.67188-0.45312-1.1719 0-0.48828 0.14844-0.86719 0.45312-1.1406 0.30078-0.28125 0.72266-0.42188 1.2656-0.42188 0.15625 0 0.3125 0.015625 0.46875 0.046875 0.15625 0.023437 0.30469 0.0625 0.45312 0.125z"
         id="path65" />
    </symbol>
  </defs>
  <g
     id="g158"
     transform="matrix(1.3027214,0,0,1.3027214,-105.84906,10.57993)">
    <path
       d="m 206.52,479.2 6.9727,-16.051 c -67.934,-29.496 -108.49,-78.336 -108.49,-130.65 0,-51.801 39.938,-100.38 106.84,-129.93 30.219,-13.262 63.531,-17.855 96.207,-13.266 12.75,1.7461 24.617,7.4648 33.922,16.352 l 3.4922,3.3711 c 8.875,8.4336 13.906,20.133 13.918,32.375 0.0547,10.332 4.2773,20.203 11.715,27.375 7.4922,7.2227 17.504,11.238 27.91,11.184 h 0.12109 l 19.828,-0.0586 4.5,11.328 c -18.75,9.8242 -29.699,24.824 -29.699,41.27 0,29.438 34.59,52.5 78.75,52.5 44.16,0 78.75,-23.062 78.75,-52.5 0,-22.594 -20.602,-42 -51.797,-49.398 l -39.652,-128.81 c 14.102,-20.086 16.645,-46.086 6.7031,-68.520004 -9.9375,-22.434 -30.906,-38.02 -55.254,-41.066 v -6.3242 c 0,-5.5312 -2.1953,-10.836 -6.1094,-14.746 -3.9102,-3.9141 -9.2148,-6.1094 -14.746,-6.1094 -5.5273,0 -10.832,2.1953 -14.742,6.1094 l -9.6523,9.6523 c -21.52,21.402 -33.582,50.523 -33.5,80.871004 0.0195,14.5 4.5312,28.637 12.918,40.465 8.3868,11.828 20.234,20.766 33.914,25.578 l 15.035,37.844 16.266,-6.4609 -10.926,-27.496 c 0.92578,0.0352 1.8594,0.0703 2.793,0.0703 15.809,0.0117 31.148,-5.3555 43.504,-15.223 l 59.375,192.89 v 0.004 c -10.516,3.8047 -21.617,5.7227 -32.797,5.668 l -53.434,-134.48 -16.262,6.4609 9.1172,22.945 -12.934,0.0391 -0.0703,-0.004 c -5.8633,0.0117 -11.504,-2.2344 -15.758,-6.2734 -4.0586,-3.8477 -6.3594,-9.1914 -6.3711,-14.785 -0.0899,-16.973 -7.0352,-33.188 -19.258,-44.965 l -3.4922,-3.3711 h 0.004 c -11.984,-11.457 -27.273,-18.844 -43.699,-21.102 -35.891,-5.0312 -72.477,0.0234 -105.66,14.594 -73.43,32.445 -117.269996,87.004 -117.269996,145.94 0,59.5 44.491996,114.34 119.019996,146.7 z M 411.25,332.5 c 0,-9.1562 7,-18.25 18.715,-24.871 l 23.031,57.969 C 429.016,360.8168 411.25,347.594 411.25,332.5 Z M 402.5,166.66 C 388.582,166.6444 375.238,161.1092 365.395,151.269 355.5512,141.4252 350.016,128.081 350,114.16 349.9297,88.457 360.148,63.789 378.371,45.664 l 9.6523,-9.6523 h 0.004 c 0.58984,-0.63672 1.418,-1 2.2891,-1.0078 0.46875,0.0039 0.92969,0.10156 1.3633,0.28125 1.2812,0.48438 2.1133,1.7266 2.0703,3.0977 v 14.527 c 0,2.3242 0.92188,4.5469 2.5625,6.1875 1.64062,1.6406 3.8672,2.5625 6.1875,2.5625 18.758,0 36.09,10.008 45.465,26.25 9.3789,16.246 9.3789,36.258 0,52.5 -9.375,16.246 -26.707,26.25 -45.465,26.25 z m 103.15,136.57 c 17.078,6.4297 28.102,17.469 28.102,29.27 0,7.7969 -4.7461,15.094 -12.633,20.988 z"
       id="path70" />
    <path
       d="m 539.78,262.06 h -0.45703 l -14.582,0.4375 0.52344,17.5 14.457,-0.4375 h 0.0547 c 30.297,0 55.051,23.445 55.223,52.328 v 0.61328 c 0,61.266 -54.699,114.46 -134.34,140.5 l -5.0117,-10.023 v -0.004 c -1.457,-2.918 -3.3789,-5.5781 -5.6875,-7.8828 l -8.6992,-8.6992 c -2.4141,-2.4023 -3.7695,-5.6719 -3.7617,-9.0781 v -4.4648 c -0.0117,-9.1875 -4.1797,-17.871 -11.336,-23.629 -7.1563,-5.758 -16.531,-7.9688 -25.508,-6.0156 -8.9727,1.9531 -16.582,7.8633 -20.699,16.074 l -3.1562,6.3164 c -2.8789,5.6875 -9.4805,8.4219 -15.543,6.4375 -7.6289,-2.5703 -15.969,-1.9766 -23.164,1.6406 l -4.375,2.1875 c -4.7188,2.3633 -8.7461,5.918 -11.676,10.309 l -5.375,8.0625 c -3.3711,5.1094 -5.1328,11.113 -5.0508,17.234 0.082,6.1172 2,12.074 5.5078,17.09 -29.562,-2.4609 -58.688,-8.7305 -86.645,-18.652 l -5.9531,16.457 c 38.23,13.828 81.621,21.141 125.48,21.141 53.355,0 104.32,-10.512 147.45,-30.031 l 1.8789,4.7344 c 0.043,0.10938 0.0898,0.21875 0.13672,0.32812 3.2383,7.3594 9.3711,13.059 16.953,15.75 6.8867,2.4688 14.449,2.2852 21.211,-0.51953 6.7578,-2.8008 12.234,-8.0234 15.352,-14.641 3.1211,-6.6211 3.6602,-14.168 1.5195,-21.164 l -4.8125,-15.629 c 40.652,-31.602 62.812,-71.473 62.812,-113.83 v -0.70703 c -0.23047,-38.496 -32.832,-69.73 -72.723,-69.73 z m -198.91,227.82 -8.8281,-10.594 c -3.6172,-4.3789 -3.9492,-10.605 -0.82031,-15.348 l 5.375,-8.0625 c 1.2422,-1.8594 2.9453,-3.3633 4.9453,-4.3633 l 4.375,-2.1875 c 3.043,-1.5312 6.5742,-1.7812 9.8047,-0.69531 6.9297,2.2773 14.445,1.9922 21.188,-0.79688 6.7383,-2.793 12.254,-7.9102 15.543,-14.418 l 3.1562,-6.3164 h 0.004 c 2.6758,-5.3281 8.6562,-8.1211 14.461,-6.7539 5.8008,1.3672 9.9102,6.5352 9.9297,12.496 v 4.4648 c -0.0234,8.0508 3.1758,15.777 8.8867,21.457 l 8.6992,8.6992 h -0.004 c 0.98047,0.97266 1.793,2.1016 2.4062,3.3359 l 3.6211,7.2422 c -30.551,8.0312 -62.023,12.051 -93.613,11.961 -3.0469,0 -6.0898,-0.0469 -9.1289,-0.12109 z m 196.9,-22.793 v -0.004 c 1.832,6.0078 -1.3008,12.406 -7.168,14.641 -5.8672,2.2344 -12.465,-0.46094 -15.09,-6.168 l -2.3086,-5.8086 c 7.2773,-3.8516 14.285,-7.9766 21.016,-12.371 0.15625,-0.10156 0.30859,-0.20703 0.46484,-0.3125 z"
       id="path72" />
    <path
       d="m 131.25,293.12 c 0,17.172 19.855,30.625 45.207,30.625 25.352,0 45.211,-13.453 45.211,-30.625 0,-17.172 -19.859,-30.625 -45.211,-30.625 -25.352,0 -45.207,13.453 -45.207,30.625 z m 72.918,0 c 0,5.3516 -10.793,13.125 -27.711,13.125 -16.914,0 -27.707,-7.7734 -27.707,-13.125 0,-5.3516 10.793,-13.125 27.707,-13.125 16.914,0 27.711,7.7734 27.711,13.125 z"
       id="path74" />
    <path
       d="m 185.21,402.5 c 25.352,0 45.211,-13.453 45.211,-30.625 0,-17.172 -19.859,-30.625 -45.211,-30.625 -25.352,0 -45.207,13.453 -45.207,30.625 0,17.172 19.855,30.625 45.207,30.625 z m 0,-43.75 c 16.914,0 27.711,7.7734 27.711,13.125 0,5.3516 -10.793,13.125 -27.711,13.125 -16.914,0 -27.707,-7.7734 -27.707,-13.125 0,-5.3516 10.793,-13.125 27.707,-13.125 z"
       id="path76" />
    <path
       d="m 263.96,455 c 25.352,0 45.211,-13.453 45.211,-30.625 0,-17.172 -19.859,-30.625 -45.211,-30.625 -25.352,0 -45.207,13.453 -45.207,30.625 0,17.172 19.855,30.625 45.207,30.625 z m 0,-43.75 c 16.914,0 27.711,7.7734 27.711,13.125 0,5.3516 -10.793,13.125 -27.711,13.125 -16.914,0 -27.707,-7.7734 -27.707,-13.125 0,-5.3516 10.793,-13.125 27.707,-13.125 z"
       id="path78" />
    <path
       d="m 252.29,271.25 c 25.352,0 45.207,-13.453 45.207,-30.625 0,-17.172 -19.855,-30.625 -45.207,-30.625 -25.352,0 -45.211,13.453 -45.211,30.625 0,17.172 19.859,30.625 45.211,30.625 z m 0,-43.75 c 16.914,0 27.707,7.7734 27.707,13.125 0,5.3516 -10.793,13.125 -27.707,13.125 -16.914,0 -27.711,-7.7734 -27.711,-13.125 0,-5.3516 10.793,-13.125 27.711,-13.125 z"
       id="path80" />
    <path
       d="m 361.34,340.74 2.0586,-8.2422 c 1.5508,-6.3203 0.67188,-12.996 -2.457,-18.703 -3.1328,-5.707 -8.293,-10.027 -14.461,-12.113 l -2.2969,-0.76562 c -2.7148,-0.89844 -4.7812,-3.1289 -5.4688,-5.9062 -2.1367,-8.5469 -8.4766,-15.418 -16.824,-18.238 -8.3477,-2.8164 -17.555,-1.1914 -24.434,4.3125 l -20.535,16.426 c -0.76953,0.61719 -1.6445,1.0898 -2.582,1.4023 l -15.227,5.0781 c -7.7148,2.5898 -13.77,8.6484 -16.363,16.363 l -1.3477,4.0469 c -1.9414,5.9102 -1.6992,12.316 0.67969,18.062 2.3828,5.75 6.7422,10.449 12.293,13.258 15.707,7.8633 33.391,10.891 50.816,8.7031 l 34.266,-4.2812 -0.004,-0.004 c 5.1719,-0.66797 10.023,-2.875 13.926,-6.3359 3.9023,-3.457 6.6758,-8.0117 7.9609,-13.062 z m -58.324,6.3125 c -14,1.7656 -28.203,-0.66797 -40.816,-6.9922 -3.7109,-1.875 -5.4961,-6.1797 -4.1992,-10.133 l 1.3477,-4.0469 c 0.83984,-2.4961 2.7969,-4.4531 5.293,-5.293 l 15.234,-5.0781 c 2.8945,-0.96094 5.5977,-2.4336 7.9766,-4.3398 l 20.535,-16.426 c 1.4648,-1.1914 3.293,-1.8438 5.1797,-1.8516 0.92578,0.004 1.8477,0.15625 2.7266,0.45703 2.7148,0.88672 4.7734,3.1211 5.4414,5.8984 2.125,8.5938 8.5117,15.488 16.918,18.266 l 2.2969,0.76562 c 4.1328,1.4023 6.5078,5.7344 5.4688,9.9727 l -2.0586,8.2383 c -0.85156,3.3438 -3.6602,5.832 -7.0859,6.2734 z"
       id="path82" />
  </g>
</svg>
