<?xml version="1.0" encoding="UTF-8" standalone="no"?>
<svg
   width="700pt"
   height="700pt"
   fill="#000000"
   version="1.1"
   viewBox="0 -70 700 700"
   id="svg8"
   sodipodi:docname="digit.svg"
   inkscape:version="1.1 (c68e22c387, 2021-05-23)"
   xmlns:inkscape="http://www.inkscape.org/namespaces/inkscape"
   xmlns:sodipodi="http://sodipodi.sourceforge.net/DTD/sodipodi-0.dtd"
   xmlns="http://www.w3.org/2000/svg"
   xmlns:svg="http://www.w3.org/2000/svg">
  <defs
     id="defs12" />
  <sodipodi:namedview
     id="namedview10"
     pagecolor="#ffffff"
     bordercolor="#666666"
     borderopacity="1.0"
     inkscape:pageshadow="2"
     inkscape:pageopacity="0.0"
     inkscape:pagecheckerboard="0"
     inkscape:document-units="pt"
     showgrid="false"
     inkscape:zoom="0.88285714"
     inkscape:cx="466.66667"
     inkscape:cy="466.10033"
     inkscape:window-width="1920"
     inkscape:window-height="1009"
     inkscape:window-x="-8"
     inkscape:window-y="-8"
     inkscape:window-maximized="1"
     inkscape:current-layer="svg8" />
  <g
     id="g6"
     transform="matrix(1.0124783,0,0,1.0124783,-1.8358878,-3.4939263)">
    <path
       d="m 405.9,170.65 c 29.629,0 53.453,23.828 53.453,53.453 v 111.8 c 0,29.629 -23.828,53.453 -53.453,53.453 H 293.8 c -29.629,0 -53.453,-23.828 -53.453,-53.453 l 0.004,-111.8 c 0,-29.629 23.828,-53.453 53.453,-53.453 z m 0,172.88 c 4.2773,0 7.6367,-3.3594 7.6367,-7.6367 l 0.004,-111.79 c 0,-4.2773 -3.3594,-7.6367 -7.6367,-7.6367 l -112.11,-0.004 c -4.2773,0 -7.6367,3.3594 -7.6367,7.6367 v 111.8 c 0,4.2773 3.3594,7.6367 7.6367,7.6367 l 112.1,0.008 z"
       id="path2" />
    <path
       d="m 472.18,440.36 c 21.078,0 37.879,-17.109 38.18,-38.18 l 0.004,-244.36 c -0.30859,-21.078 -17.109,-38.18 -38.18,-38.18 l -244.36,-0.004 c -21.379,0 -38.18,17.109 -38.18,38.18 v 80.949 0.60938 0.91797 l -0.30859,78.199 c 0.30859,0.30859 0.30859,0.30859 0,0.60937 v 3.668 0.30859 79.113 1.2227 c 0.30859,0.30859 0.30859,0.30859 0,0.60938 1.2227,20.16 17.719,36.348 38.488,36.348 h 244.36 z m 0,-412.36 c 12.523,0 22.91,10.387 22.91,22.91 v 26.27 c 27.797,7.9414 49.789,29.934 57.73,57.73 h 26.27 c 12.523,0 22.91,10.387 22.91,22.91 0,12.523 -10.387,22.91 -22.91,22.91 h -22.91 v 35.738 h 22.91 c 12.523,0 22.91,10.078 22.91,22.91 0,12.523 -10.387,22.91 -22.91,22.91 h -22.91 l -0.30859,35.43 h 23.211 c 12.523,0 22.91,10.387 22.91,22.91 0,12.828 -10.387,22.91 -22.91,22.91 h -23.211 v 35.738 h 23.211 c 12.523,0 22.91,10.387 22.91,22.91 0,12.523 -10.387,22.91 -22.91,22.91 h -26.27 c -7.9336,27.793 -29.922,49.781 -57.723,57.723 v 26.27 c 0,12.523 -10.387,22.91 -22.91,22.91 -12.828,0 -22.91,-10.387 -22.91,-22.91 v -22.91 h -35.738 v 22.91 c 0,12.523 -10.387,22.91 -22.91,22.91 -12.828,0 -22.91,-10.387 -22.91,-22.91 v -22.91 h -35.738 v 22.91 c 0,12.523 -10.078,22.91 -22.91,22.91 -12.523,0 -22.91,-10.387 -22.91,-22.91 v -22.91 h -35.43 v 22.91 c 0,12.523 -10.387,22.91 -22.91,22.91 -12.828,0 -22.91,-10.387 -22.91,-22.91 v -25.961 c -28.102,-7.9414 -50.094,-29.934 -58.039,-58.039 h -25.953 c -12.832,0 -22.91,-10.383 -22.91,-22.91 0,-12.523 10.078,-22.91 22.91,-22.91 h 22.91 v -35.738 h -22.91 c -12.832,0 -22.91,-10.078 -22.91,-22.902 0,-12.523 10.078,-22.91 22.91,-22.91 h 22.91 v -35.43 h -22.91 c -12.832,-0.008 -22.91,-10.391 -22.91,-22.918 0,-12.828 10.078,-22.91 22.91,-22.91 h 22.91 v -35.738 h -22.91 c -12.832,0.008 -22.91,-10.383 -22.91,-22.902 0,-12.523 10.078,-22.91 22.91,-22.91 h 25.961 c 7.9414,-28.102 29.934,-50.094 58.039,-58.039 V 50.911 c 0,-12.523 10.078,-22.91 22.91,-22.91 12.523,0 22.91,10.387 22.91,22.91 v 22.91 h 35.43 v -22.91 c 0,-12.523 10.387,-22.91 22.91,-22.91 12.828,0 22.91,10.387 22.91,22.91 v 22.91 h 35.738 v -22.91 c 0,-12.523 10.078,-22.91 22.91,-22.91 12.523,0 22.91,10.387 22.91,22.91 v 22.91 h 35.738 v -22.91 c -0.008,-12.523 10.074,-22.91 22.902,-22.91 z"
       id="path4" />
  </g>
</svg>
