<?xml version="1.0" encoding="UTF-8" standalone="no"?>
<svg
   height="300px"
   width="300px"
   fill="#000000"
   version="1.1"
   x="0px"
   y="0px"
   viewBox="0 0 100 100"
   enable-background="new 0 0 100 100"
   xml:space="preserve"
   id="svg6"
   sodipodi:docname="ecology.svg"
   inkscape:version="1.1 (c68e22c387, 2021-05-23)"
   xmlns:inkscape="http://www.inkscape.org/namespaces/inkscape"
   xmlns:sodipodi="http://sodipodi.sourceforge.net/DTD/sodipodi-0.dtd"
   xmlns="http://www.w3.org/2000/svg"
   xmlns:svg="http://www.w3.org/2000/svg"><defs
     id="defs10" /><sodipodi:namedview
     id="namedview8"
     pagecolor="#ffffff"
     bordercolor="#666666"
     borderopacity="1.0"
     inkscape:pageshadow="2"
     inkscape:pageopacity="0.0"
     inkscape:pagecheckerboard="0"
     showgrid="false"
     inkscape:zoom="1.3733333"
     inkscape:cx="113.59224"
     inkscape:cy="140.89806"
     inkscape:window-width="1920"
     inkscape:window-height="1009"
     inkscape:window-x="-8"
     inkscape:window-y="-8"
     inkscape:window-maximized="1"
     inkscape:current-layer="svg6" /><g
     id="g4"
     transform="matrix(0.97931344,0,0,0.97931344,0.25717486,1.038194)"><path
       d="m 45.95,83.864 c 5.824,2.794 12.669,2.367 18.101,-1.124 7.521,3.35 16.338,-0.043 19.693,-7.57 0.824,-1.877 1.266,-3.904 1.279,-5.951 0.064,-8.304 3.504,-16.224 9.541,-21.932 -12.648,-1.856 -25.445,2.196 -34.723,10.991 -5.246,4.984 -6.172,13.01 -2.189,19.047 4.982,-1.025 9.164,-4.395 11.211,-9.051 -0.148,1.855 -0.633,3.676 -1.449,5.354 -3.592,7.408 -12.506,10.508 -19.921,6.917 1.892,-4.885 2.36,-10.209 1.351,-15.349 8.809,-8.609 8.965,-22.737 0.355,-31.545 -2.14,-2.19 -4.713,-3.917 -7.557,-5.069 C 30.139,23.911 21.039,14.747 16.439,3.215 6.877,19.759 5.441,39.786 12.536,57.53 16.56,67.569 27.203,73.285 37.789,71.088 39.126,63.603 36.744,55.931 31.405,50.514 c 5.495,2.695 9.64,7.529 11.475,13.373 3.675,11.744 -2.873,24.25 -14.625,27.926 -1.436,0.447 -2.239,1.983 -1.791,3.427 0.447,1.442 1.983,2.246 3.42,1.792 6.866,-2.141 12.625,-6.87 16.066,-13.168 z"
       id="path2" /></g></svg>
