<?xml version="1.0" encoding="UTF-8" standalone="no"?>
<svg
   id="master-artboard"
   viewBox="0 0 1700 1700"
   version="1.1"
   x="0px"
   y="0px"
   width="1700"
   height="1700"
   sodipodi:docname="international.svg"
   inkscape:version="1.1 (c68e22c387, 2021-05-23)"
   xmlns:inkscape="http://www.inkscape.org/namespaces/inkscape"
   xmlns:sodipodi="http://sodipodi.sourceforge.net/DTD/sodipodi-0.dtd"
   xmlns="http://www.w3.org/2000/svg"
   xmlns:svg="http://www.w3.org/2000/svg">
  <defs
     id="defs18" />
  <sodipodi:namedview
     id="namedview16"
     pagecolor="#ffffff"
     bordercolor="#666666"
     borderopacity="1.0"
     inkscape:pageshadow="2"
     inkscape:pageopacity="0.0"
     inkscape:pagecheckerboard="0"
     showgrid="false"
     inkscape:zoom="0.35448982"
     inkscape:cx="1069.1421"
     inkscape:cy="819.48757"
     inkscape:window-width="1920"
     inkscape:window-height="1009"
     inkscape:window-x="-8"
     inkscape:window-y="-8"
     inkscape:window-maximized="1"
     inkscape:current-layer="master-artboard"
     height="1700px" />
  <rect
     id="ee-background"
     x="-392.9592"
     y="-36.360641"
     width="2313.0366"
     height="1776.2094"
     style="fill:#000000;fill-opacity:0;stroke-width:1.08065" />
  <g
     transform="matrix(3.96705,0,0,3.96705,-167.9294,-104.60508)"
     id="g13"
     style="fill:#000000">
    <g
       transform="matrix(0.1,0,0,-0.1,0,500)"
       fill="#000000"
       stroke="none"
       id="g11"
       style="fill:#000000">
      <path
         d="m 2570,4291 c -8,-4 -62,-11 -120,-15 -137,-8 -308,-44 -387,-81 -17,-8 -37,-15 -45,-15 -39,0 -388,-192 -418,-230 -3,-3 -32,-27 -65,-52 -69,-53 -265,-255 -265,-273 0,-2 -21,-32 -48,-67 -80,-107 -197,-351 -232,-488 -7,-25 -16,-54 -21,-65 -14,-33 -39,-218 -39,-288 0,-36 -4,-69 -10,-72 -13,-8 -13,-72 0,-80 6,-3 10,-39 10,-78 0,-73 23,-237 40,-292 6,-16 21,-64 34,-105 137,-427 448,-790 841,-985 185,-91 249,-112 555,-178 30,-7 127,-12 215,-12 147,0 202,6 315,36 19,5 67,16 105,25 39,8 84,22 102,30 17,8 36,14 42,14 6,0 33,9 59,21 277,120 522,305 689,519 109,140 225,351 262,475 7,22 16,49 21,60 14,31 40,140 40,167 0,13 4,28 9,34 29,29 37,423 11,560 -31,167 -88,363 -111,389 -5,5 -9,14 -9,20 0,16 -116,231 -148,275 -14,19 -44,60 -66,90 -96,131 -288,305 -441,401 -129,81 -279,148 -420,187 -33,10 -64,20 -70,23 -16,10 -133,29 -240,39 -55,5 -118,12 -140,15 -22,3 -47,1 -55,-4 z m -141,-80 c 11,-7 11,-13 0,-36 -10,-20 -30,-33 -69,-48 -68,-25 -67,-23 -46,-46 30,-33 17,-61 -39,-80 -27,-10 -79,-28 -115,-41 -36,-12 -72,-28 -80,-35 -8,-7 -29,-20 -46,-28 -34,-17 -94,-75 -94,-91 0,-11 -40,-56 -51,-56 -4,0 -24,23 -44,51 -34,48 -36,54 -27,88 45,157 75,186 262,249 76,25 105,32 215,52 33,6 71,15 85,20 34,11 33,11 49,1 z m 655,-101 c 17,-5 56,-16 86,-26 30,-9 79,-27 109,-41 41,-20 58,-23 71,-15 19,12 51,-5 183,-95 170,-117 305,-256 435,-448 65,-97 126,-226 173,-368 34,-103 35,-132 2,-131 -29,1 -29,-10 -2,-30 18,-12 20,-21 15,-53 -3,-21 -9,-58 -12,-83 -4,-25 -11,-51 -16,-57 -6,-7 -46,-34 -89,-59 -63,-38 -77,-50 -68,-60 14,-17 33,-18 59,-2 41,26 76,-34 52,-86 -5,-12 -18,-43 -27,-71 -20,-57 -43,-85 -136,-161 l -66,-54 -6,-128 c -6,-147 -19,-199 -50,-212 -12,-4 -41,-25 -64,-45 -39,-33 -43,-41 -43,-81 0,-44 -1,-46 -46,-66 -26,-11 -82,-53 -126,-94 -43,-41 -84,-74 -89,-74 -6,0 -25,-6 -42,-14 -109,-48 -129,-46 -117,7 4,19 11,40 15,47 6,10 -36,128 -56,155 -4,6 -15,55 -24,110 -17,95 -17,104 0,192 17,87 17,94 2,111 -9,10 -17,23 -17,29 0,6 -4,13 -8,15 -4,2 -18,18 -31,36 -18,26 -22,43 -19,85 l 3,52 -35,3 c -19,2 -46,12 -61,23 -28,20 -88,26 -104,10 -19,-16 -129,-31 -234,-31 h -107 l -65,68 c -92,93 -169,190 -169,210 0,10 12,35 26,56 l 26,38 -26,27 c -14,15 -26,33 -26,39 0,7 18,41 39,75 21,34 50,82 64,107 23,41 28,45 68,48 48,4 59,13 59,56 0,19 12,40 38,66 l 38,38 -37,6 c -35,6 -37,7 -43,57 -4,28 -12,59 -19,70 -10,16 -6,24 23,54 34,35 35,35 95,29 51,-5 63,-4 68,10 7,17 -27,46 -53,46 -35,0 -55,56 -27,77 6,6 40,16 75,24 49,10 72,22 100,49 38,37 87,60 128,60 28,0 32,24 8,58 -12,18 -25,22 -68,22 -57,0 -67,7 -102,69 l -19,33 52,47 c 35,31 61,67 83,114 l 31,67 h 47 c 25,0 59,-4 76,-10 z M 1207,2466 c 22,-8 59,-12 84,-9 41,4 48,1 104,-46 51,-44 65,-51 102,-51 36,0 46,-5 70,-35 15,-19 30,-52 33,-72 l 5,-38 54,-3 c 30,-2 64,-10 75,-18 11,-8 41,-14 67,-14 55,0 129,-37 157,-78 40,-60 47,-82 33,-104 -61,-98 -63,-104 -51,-185 9,-60 9,-81 -1,-99 -7,-13 -17,-24 -22,-24 -5,0 -27,-14 -49,-31 l -39,-32 3,-88 c 3,-80 1,-90 -20,-112 -13,-14 -26,-43 -29,-66 -5,-38 -2,-45 43,-94 27,-28 61,-60 76,-69 27,-17 39,-58 17,-58 -30,0 -209,104 -286,166 -34,28 -100,125 -124,185 -13,29 -105,164 -205,299 -40,54 -107,120 -122,120 -13,0 -69,55 -77,75 -4,11 -11,38 -16,60 -4,22 -12,58 -18,80 -16,60 -14,256 3,280 7,11 16,32 20,48 5,23 12,27 40,27 18,0 51,-6 73,-14 z m 2781,-473 c 3,-78 -1,-89 -66,-170 -18,-23 -50,-48 -73,-57 -51,-21 -59,-20 -59,4 0,22 23,111 40,155 14,39 120,146 140,143 11,-3 16,-21 18,-75 z"
         style="fill:#000000"
         id="path3" />
      <path
         d="m 3094,3946 c -3,-9 -2,-29 4,-44 19,-49 22,-138 6,-161 -14,-20 -14,-21 8,-21 31,1 100,63 92,83 -3,8 -23,27 -45,42 -36,23 -40,30 -37,60 3,39 -17,69 -28,41 z"
         style="fill:#000000"
         id="path5" />
      <path
         d="m 3522,3452 c -7,-2 -22,-25 -34,-50 -11,-26 -29,-53 -39,-60 -14,-9 -19,-26 -19,-58 0,-56 -15,-57 -89,-9 -45,30 -55,33 -65,21 -10,-13 -47,-25 -91,-29 -16,-2 -20,4 -19,28 1,26 -6,35 -64,73 -62,40 -67,41 -89,27 -15,-11 -35,-14 -56,-10 -28,5 -38,1 -68,-27 -20,-18 -39,-46 -42,-60 -8,-30 -47,-61 -92,-73 l -30,-8 38,-7 c 20,-4 40,-10 43,-13 4,-3 31,9 60,28 53,34 57,35 159,35 h 105 v -34 c 0,-32 2,-34 58,-50 31,-10 67,-22 80,-27 43,-17 78,-11 90,16 9,20 19,25 49,25 21,0 56,-7 78,-15 37,-13 186,-21 196,-11 3,3 3,24 1,46 -4,38 -6,41 -28,36 -77,-19 -75,-19 -81,3 -3,12 -19,29 -35,37 -39,20 -54,61 -32,85 10,11 25,19 36,19 21,0 23,9 5,42 -7,14 -18,23 -25,20 z"
         style="fill:#000000"
         id="path7" />
      <path
         d="m 3770,2976 c 0,-3 20,-55 39,-101 5,-11 17,-40 27,-65 15,-39 63,-100 78,-100 8,0 -15,63 -34,90 -9,14 -34,60 -55,103 -21,42 -42,77 -46,77 -5,0 -9,-2 -9,-4 z"
         style="fill:#000000"
         id="path9" />
    </g>
  </g>
</svg>
