<?xml version="1.0" encoding="UTF-8" standalone="no"?>
<svg
   width="752pt"
   height="752pt"
   version="1.1"
   viewBox="0 0 752 752"
   id="svg14"
   fill="#000000"
   sodipodi:docname="research.svg"
   inkscape:version="1.1 (c68e22c387, 2021-05-23)"
   xmlns:inkscape="http://www.inkscape.org/namespaces/inkscape"
   xmlns:sodipodi="http://sodipodi.sourceforge.net/DTD/sodipodi-0.dtd"
   xmlns="http://www.w3.org/2000/svg"
   xmlns:svg="http://www.w3.org/2000/svg">
  <defs
     id="defs18" />
  <sodipodi:namedview
     id="namedview16"
     pagecolor="#ffffff"
     bordercolor="#666666"
     borderopacity="1.0"
     inkscape:pageshadow="2"
     inkscape:pageopacity="0.0"
     inkscape:pagecheckerboard="0"
     inkscape:document-units="pt"
     showgrid="false"
     inkscape:zoom="0.82180851"
     inkscape:cx="615.71521"
     inkscape:cy="595.63754"
     inkscape:window-width="1920"
     inkscape:window-height="1009"
     inkscape:window-x="-8"
     inkscape:window-y="-8"
     inkscape:window-maximized="1"
     inkscape:current-layer="g12" />
  <g
     id="g12"
     transform="matrix(1.5963176,0,0,1.5963176,-215.85201,-171.28733)">
    <path
       d="m 449.97143,300.90481 c -5.00388,-2.50968 -8.14039,-7.68646 -8.04477,-13.28335 v -51.92392 h 3.36782 c 4.1056,0 7.48274,-3.38014 7.48274,-7.48581 0,-4.1056 -3.37707,-7.48274 -7.48274,-7.48274 H 370.4426 c -4.10559,0 -7.48274,3.37706 -7.48274,7.48274 0,4.10559 3.47321,8.36907 7.48274,7.48581 h 3.37091 v 51.92392 c 0.003,5.60273 -3.14252,10.7577 -8.12143,13.32286 -13.26438,6.36216 -24.89925,15.66911 -34.02113,27.20838 -6.31586,7.90252 -11.36619,16.74385 -14.96816,26.19527 l -22.45423,-43.26314 c -1.47248,-2.85849 -2.22874,-6.02875 -2.21025,-9.24199 V 201.54406 h 3.55613 c 4.1056,0 7.48583,-3.38014 7.48583,-7.48582 0,-4.1056 -3.38015,-7.48274 -7.48583,-7.48274 h -74.84872 c -4.10559,0 -7.48581,3.37706 -7.48581,7.48274 0,4.10559 3.38014,7.48582 7.48581,7.48582 h 3.36782 v 100.63858 c 0.0185,3.21349 -0.73776,6.38374 -2.20717,9.24201 l -64.78485,125.52361 c -5.575,10.87229 -5.12123,23.89565 1.1977,34.35779 5.27556,8.99227 14.90968,14.5762 25.33706,14.66866 H 332.682 c 10.37205,-0.14508 19.94121,-5.72316 25.18611,-14.66866 6.36525,-10.43686 6.87765,-23.461 1.34589,-34.35779 L 326.80418,374.3366 c 2.15778,-12.40617 7.13692,-24.14615 14.55802,-34.31748 8.36561,-0.61429 16.70355,1.50329 23.76604,6.02567 18.36703,11.70284 41.9608,11.70284 60.32784,0 5.57191,-3.66725 12.04817,-5.73857 18.71316,-5.98861 3.92344,-0.25622 7.01349,-3.55305 7.01349,-7.48582 0,-4.11176 -3.3864,-7.49814 -7.50123,-7.49814 -0.16052,0 -0.32413,0.003 -0.48465,0.0123 -9.37159,0.42908 -18.44132,3.4481 -26.19843,8.72043 -13.1901,8.10008 -29.88417,8.10008 -43.07505,0 -5.84353,-3.96359 -12.46465,-6.62761 -19.42282,-7.82224 5.41449,-4.62423 11.40333,-8.53867 17.81465,-11.63803 10.07571,-5.078 16.45937,-15.43757 16.46569,-26.71999 v -51.92391 h 38.17313 v 51.92391 c -0.0556,11.32589 6.38064,21.74142 16.54313,26.75714 28.65295,13.6192 46.98601,42.63963 46.98601,74.36429 0,45.16448 -37.16634,82.33636 -82.33635,82.33636 -9.39056,0 -18.71317,-1.60833 -27.56321,-4.75384 -0.80257,-0.28091 -1.64222,-0.42599 -2.48802,-0.42599 -4.11485,0 -7.50123,3.38638 -7.50123,7.49815 0,3.17642 2.01885,6.02259 5.01004,7.0752 10.3689,3.64259 21.27516,5.50086 32.26124,5.50086 2.39542,0 4.79091,0 7.18639,-0.26238 50.5793,-3.6889 90.22308,-46.33168 90.22308,-97.04294 0,-37.3884 -21.55018,-71.60394 -55.27102,-87.75748 z M 345.07338,463.51495 c -2.50044,4.51614 -7.22954,7.37155 -12.38799,7.48583 H 183.65968 c -5.16129,-0.11422 -9.88764,-2.96961 -12.38799,-7.48583 -3.63334,-6.00409 -3.88646,-13.48327 -0.67295,-19.72231 l 40.4198,-78.59293 c 12.06083,-4.71994 25.66739,-3.51291 36.71274,3.2567 8.9338,5.99169 19.4813,9.12821 30.23979,8.97964 5.22001,0.0123 10.41868,-0.67913 15.45653,-2.05593 3.2413,-0.8921 5.50395,-3.86479 5.50395,-7.22337 0,-4.10867 -3.37706,-7.4889 -7.4889,-7.4889 -0.66987,0 -1.33355,0.0895 -1.98179,0.26547 -11.1718,3.21657 -23.20101,1.55894 -33.08549,-4.56552 -10.74584,-7.01349 -23.62695,-10.0354 -36.37608,-8.53235 l 15.23369,-29.56648 c 2.49419,-4.99155 3.77835,-10.50799 3.74136,-16.0919 V 201.53848 h 38.28376 v 100.63859 c -0.037,5.58423 1.2471,11.10066 3.74445,16.0919 l 64.74535,125.52362 c 3.21347,6.23864 2.96036,13.71799 -0.67295,19.72232 z"
       id="path2"
       sodipodi:nodetypes="cccssssssccccccccssssssccccccccccccccssccccccccccsscsscscscccccccccccsscccccccccccc"
       style="stroke-width:0.790252" />
    <path
       d="m 231.97252,392.40808 c -14.3731,0 -26.19843,11.82612 -26.19843,26.19528 0,14.3731 11.82611,26.19842 26.19843,26.19842 14.36995,0 26.19527,-11.82611 26.19527,-26.19842 0,-14.36995 -11.82612,-26.19528 -26.19527,-26.19528 z m 0,37.42554 c -6.16152,0 -11.2271,-5.06875 -11.2271,-11.23026 0,-6.15844 5.06567,-11.22711 11.2271,-11.22711 6.15843,0 11.22711,5.06875 11.22711,11.22711 0,6.16151 -5.06875,11.23026 -11.22711,11.23026 z"
       id="path4"
       style="stroke-width:0.790252" />
    <path
       d="m 297.05767,426.08862 c -2.44796,-0.47847 -4.97922,0.29635 -6.73563,2.059 -0.36426,0.3303 -0.67913,0.70691 -0.93534,1.12366 -0.27474,0.40439 -0.51551,0.82732 -0.71308,1.27183 -0.18522,0.45686 -0.32413,0.93534 -0.41056,1.42309 -0.19756,0.95999 -0.19756,1.95714 0,2.91713 0.0864,0.48774 0.22535,0.96624 0.41056,1.42309 0.19757,0.44452 0.43834,0.86746 0.71308,1.27183 0.55564,0.80567 1.25325,1.50022 2.05592,2.05901 0.39512,0.28708 0.82115,0.52477 1.27491,0.70999 0.45378,0.1883 0.93534,0.32721 1.42001,0.41364 0.96315,0.19757 1.95714,0.19757 2.92021,0 0.48465,-0.0864 0.96624,-0.22534 1.42308,-0.41364 0.4507,-0.18522 0.87671,-0.42291 1.27184,-0.70999 0.41982,-0.26857 0.80875,-0.58035 1.16073,-0.93535 1.35203,-1.36753 2.13304,-3.20423 2.1701,-5.12739 0.0556,-0.48774 0.0556,-0.9724 0,-1.46015 -0.0864,-0.48774 -0.22535,-0.96624 -0.41364,-1.42308 -0.18522,-0.4507 -0.42292,-0.87979 -0.71,-1.27183 -0.25931,-0.40439 -0.55873,-0.78099 -0.89828,-1.12366 -0.35191,-0.355 -0.74086,-0.66369 -1.16072,-0.93535 -0.39204,-0.28708 -0.81807,-0.52169 -1.27184,-0.70999 -0.49699,-0.25004 -1.02487,-0.43835 -1.57125,-0.56182 z"
       id="path6"
       style="stroke-width:0.790252" />
    <path
       d="m 464.0063,399.89177 c 0,-18.47847 -15.20602,-33.68449 -33.68448,-33.68449 -18.4753,0 -33.68133,15.20602 -33.68133,33.68449 0,18.4753 15.20603,33.68133 33.68133,33.68133 18.47846,0 33.68448,-15.20603 33.68448,-33.68133 z m -52.39765,0 c 0,-10.26696 8.44858,-18.71317 18.71317,-18.71317 10.26695,0 18.71316,8.44621 18.71316,18.71317 0,10.2638 -8.44621,18.71 -18.71316,18.71 -10.2638,0 -18.71317,-8.4462 -18.71317,-18.71 z"
       id="path8"
       style="stroke-width:0.790252" />
    <path
       d="m 377.93206,381.1786 c 0,-6.16151 -5.06567,-11.22711 -11.22711,-11.22711 -6.16143,0 -11.22711,5.06567 -11.22711,11.22711 0,6.15843 5.06568,11.22712 11.22711,11.22712 6.16144,0 11.22711,-5.06876 11.22711,-11.22712 z m -11.22711,3.74137 c -2.05592,0 -3.74137,-1.68853 -3.74137,-3.74137 0,-2.05592 1.68545,-3.74445 3.74137,-3.74445 2.05592,0 3.74137,1.68853 3.74137,3.74445 0,2.05284 -1.68545,3.74137 -3.74137,3.74137 z"
       id="path10"
       style="stroke-width:0.790252" />
  </g>
</svg>
