<?xml version="1.0" encoding="UTF-8" standalone="no"?>
<svg
   width="700pt"
   height="700pt"
   version="1.1"
   viewBox="0 0 700 700"
   id="svg152"
   sodipodi:docname="rp.svg"
   inkscape:version="1.1 (c68e22c387, 2021-05-23)"
   xmlns:inkscape="http://www.inkscape.org/namespaces/inkscape"
   xmlns:sodipodi="http://sodipodi.sourceforge.net/DTD/sodipodi-0.dtd"
   xmlns="http://www.w3.org/2000/svg"
   xmlns:svg="http://www.w3.org/2000/svg">
  <sodipodi:namedview
     id="namedview154"
     pagecolor="#ffffff"
     bordercolor="#666666"
     borderopacity="1.0"
     inkscape:pageshadow="2"
     inkscape:pageopacity="0.0"
     inkscape:pagecheckerboard="0"
     inkscape:document-units="pt"
     showgrid="false"
     inkscape:zoom="0.90509668"
     inkscape:cx="454.64756"
     inkscape:cy="422.60679"
     inkscape:window-width="1920"
     inkscape:window-height="1009"
     inkscape:window-x="-8"
     inkscape:window-y="-8"
     inkscape:window-maximized="1"
     inkscape:current-layer="g150" />
  <defs
     id="defs68">
    <symbol
       id="v"
       overflow="visible">
      <path
         d="m20.391-1.2188c-1.0547 0.54297-2.1523 0.95312-3.2969 1.2344-1.1367 0.28125-2.3203 0.42188-3.5469 0.42188-3.6992 0-6.6328-1.0312-8.7969-3.0938-2.1562-2.0703-3.2344-4.8789-3.2344-8.4219 0-3.5391 1.0781-6.3438 3.2344-8.4062 2.1641-2.0703 5.0977-3.1094 8.7969-3.1094 1.2266 0 2.4102 0.14062 3.5469 0.42188 1.1445 0.27344 2.2422 0.68359 3.2969 1.2344v4.5938c-1.0625-0.72656-2.1094-1.2578-3.1406-1.5938-1.0312-0.33203-2.1172-0.5-3.25-0.5-2.043 0-3.6484 0.65625-4.8125 1.9688-1.168 1.3047-1.75 3.1016-1.75 5.3906 0 2.293 0.58203 4.0938 1.75 5.4062 1.1641 1.3047 2.7695 1.9531 4.8125 1.9531 1.1328 0 2.2188-0.16406 3.25-0.5 1.0312-0.33203 2.0781-0.86328 3.1406-1.5938z"
         id="path2" />
    </symbol>
    <symbol
       id="b"
       overflow="visible">
      <path
         d="m14.922-12.109c-0.46875-0.21875-0.93359-0.37891-1.3906-0.48438-0.46094-0.10156-0.92188-0.15625-1.3906-0.15625-1.3672 0-2.418 0.4375-3.1562 1.3125-0.74219 0.875-1.1094 2.1328-1.1094 3.7656v7.6719h-5.3125v-16.641h5.3125v2.7344c0.6875-1.0938 1.4727-1.8906 2.3594-2.3906 0.88281-0.5 1.9453-0.75 3.1875-0.75 0.17578 0 0.36719 0.011719 0.57812 0.03125 0.20703 0.011719 0.50781 0.042969 0.90625 0.09375z"
         id="path5" />
    </symbol>
    <symbol
       id="a"
       overflow="visible">
      <path
         d="m19.172-8.375v1.5312h-12.438c0.125 1.2422 0.57031 2.1719 1.3438 2.7969 0.78125 0.625 1.8633 0.9375 3.25 0.9375 1.1133 0 2.2578-0.16406 3.4375-0.5 1.1758-0.33203 2.3828-0.83203 3.625-1.5v4.0938c-1.2617 0.48047-2.5234 0.83984-3.7812 1.0781-1.2617 0.25-2.5234 0.375-3.7812 0.375-3.0117 0-5.3516-0.76562-7.0156-2.2969-1.668-1.5312-2.5-3.6797-2.5-6.4531 0-2.707 0.81641-4.8359 2.4531-6.3906 1.6445-1.5625 3.8984-2.3438 6.7656-2.3438 2.6133 0 4.707 0.78906 6.2812 2.3594 1.5703 1.5742 2.3594 3.6797 2.3594 6.3125zm-5.4688-1.7656c0-1.0078-0.29688-1.8203-0.89062-2.4375-0.58594-0.625-1.3555-0.9375-2.3125-0.9375-1.0234 0-1.8555 0.29297-2.5 0.875-0.64844 0.58594-1.0469 1.418-1.2031 2.5z"
         id="path8" />
    </symbol>
    <symbol
       id="f"
       overflow="visible">
      <path
         d="m10.016-7.4844c-1.1055 0-1.9375 0.1875-2.5 0.5625s-0.84375 0.92969-0.84375 1.6562c0 0.67969 0.22266 1.2109 0.67188 1.5938 0.45703 0.375 1.0859 0.5625 1.8906 0.5625 1 0 1.8359-0.35938 2.5156-1.0781 0.6875-0.71875 1.0312-1.6133 1.0312-2.6875v-0.60938zm8.125-2.0156v9.5h-5.3594v-2.4688c-0.71094 1.0117-1.5117 1.75-2.4062 2.2188-0.89844 0.45703-1.9805 0.6875-3.25 0.6875-1.7305 0-3.1328-0.50391-4.2031-1.5156-1.0742-1.0078-1.6094-2.3164-1.6094-3.9219 0-1.9453 0.66406-3.375 2-4.2812 1.3438-0.91406 3.4531-1.375 6.3281-1.375h3.1406v-0.42188c0-0.83203-0.33594-1.4453-1-1.8438-0.65625-0.39453-1.6953-0.59375-3.1094-0.59375-1.1367 0-2.1953 0.11719-3.1719 0.34375-0.98047 0.23047-1.8906 0.57422-2.7344 1.0312v-4.0625c1.1328-0.26953 2.2734-0.47656 3.4219-0.625 1.1562-0.14453 2.3047-0.21875 3.4531-0.21875 3.0078 0 5.1758 0.59375 6.5 1.7812 1.332 1.1797 2 3.1016 2 5.7656z"
         id="path11" />
    </symbol>
    <symbol
       id="c"
       overflow="visible">
      <path
         d="m8.375-21.375v4.7344h5.4688v3.7969h-5.4688v7.0625c0 0.77344 0.14844 1.293 0.45312 1.5625 0.30078 0.27344 0.91016 0.40625 1.8281 0.40625h2.7344v3.8125h-4.5625c-2.1055 0-3.5938-0.4375-4.4688-1.3125s-1.3125-2.3633-1.3125-4.4688v-7.0625h-2.6406v-3.7969h2.6406v-4.7344z"
         id="path14" />
    </symbol>
    <symbol
       id="e"
       overflow="visible">
      <path
         d="m13.875-14.203v-8.9219h5.3594v23.125h-5.3594v-2.4062c-0.73047 0.98047-1.5391 1.6992-2.4219 2.1562-0.875 0.45703-1.8984 0.6875-3.0625 0.6875-2.043 0-3.7266-0.8125-5.0469-2.4375-1.3125-1.6328-1.9688-3.7383-1.9688-6.3125 0-2.5625 0.65625-4.6562 1.9688-6.2812 1.3203-1.6328 3.0039-2.4531 5.0469-2.4531 1.1562 0 2.1758 0.23047 3.0625 0.6875 0.88281 0.46094 1.6914 1.1797 2.4219 2.1562zm-3.5 10.766c1.1328 0 2-0.41406 2.5938-1.25 0.60156-0.83203 0.90625-2.0391 0.90625-3.625 0-1.582-0.30469-2.7891-0.90625-3.625-0.59375-0.83203-1.4609-1.25-2.5938-1.25-1.1367 0-2.0078 0.41797-2.6094 1.25-0.59375 0.83594-0.89062 2.043-0.89062 3.625 0 1.5859 0.29688 2.793 0.89062 3.625 0.60156 0.83594 1.4727 1.25 2.6094 1.25z"
         id="path17" />
    </symbol>
    <symbol
       id="l"
       overflow="visible">
      <path
         d="m11.422-3.4375c1.1328 0 2-0.41406 2.5938-1.25 0.60156-0.83203 0.90625-2.0391 0.90625-3.625 0-1.582-0.30469-2.7891-0.90625-3.625-0.59375-0.83203-1.4609-1.25-2.5938-1.25-1.1484 0-2.0273 0.42188-2.6406 1.2656-0.60547 0.83594-0.90625 2.0391-0.90625 3.6094 0 1.5859 0.30078 2.793 0.90625 3.625 0.61328 0.83594 1.4922 1.25 2.6406 1.25zm-3.5469-10.766c0.73828-0.97656 1.5508-1.6953 2.4375-2.1562 0.89453-0.45703 1.9219-0.6875 3.0781-0.6875 2.0508 0 3.7344 0.82031 5.0469 2.4531 1.3203 1.625 1.9844 3.7188 1.9844 6.2812 0 2.5742-0.66406 4.6797-1.9844 6.3125-1.3125 1.625-2.9961 2.4375-5.0469 2.4375-1.1562 0-2.1836-0.23047-3.0781-0.6875-0.88672-0.46875-1.6992-1.1875-2.4375-2.1562v2.4062h-5.3125v-23.125h5.3125z"
         id="path20" />
    </symbol>
    <symbol
       id="k"
       overflow="visible">
      <path
         d="m0.375-16.641h5.3125l4.4844 11.297 3.7969-11.297h5.3281l-7 18.219c-0.71094 1.8516-1.5312 3.1445-2.4688 3.875-0.9375 0.73828-2.1719 1.1094-3.7031 1.1094h-3.0781v-3.4844h1.6719c0.89453 0 1.5469-0.14844 1.9531-0.4375 0.41406-0.28125 0.73828-0.79688 0.96875-1.5469l0.14062-0.45312z"
         id="path23" />
    </symbol>
    <symbol
       id="j"
       overflow="visible">
      <path
         d="m16.266-4.0469h-8.9531l-1.4062 4.0469h-5.75l8.2188-22.188h6.8125l8.2188 22.188h-5.75zm-7.5312-4.1094h6.0781l-3.0312-8.8281z"
         id="path26" />
    </symbol>
    <symbol
       id="i"
       overflow="visible">
      <path
         d="m19.297-10.141v10.141h-5.3594v-7.7656c0-1.4258-0.03125-2.4102-0.09375-2.9531-0.0625-0.55078-0.17188-0.95703-0.32812-1.2188-0.21094-0.34375-0.49609-0.60938-0.85938-0.79688-0.35547-0.19531-0.76172-0.29688-1.2188-0.29688-1.1055 0-1.9766 0.42969-2.6094 1.2812-0.63672 0.85547-0.95312 2.043-0.95312 3.5625v8.1875h-5.3125v-16.641h5.3125v2.4375c0.80078-0.97656 1.6484-1.6953 2.5469-2.1562 0.90625-0.45703 1.9062-0.6875 3-0.6875 1.9141 0 3.375 0.58984 4.375 1.7656 1 1.1797 1.5 2.8906 1.5 5.1406z"
         id="path29" />
    </symbol>
    <symbol
       id="h"
       overflow="visible">
      <path
         d="m2.5625-16.641h5.3125v16.344c0 2.2266-0.53906 3.9258-1.6094 5.0938-1.0625 1.1758-2.6094 1.7656-4.6406 1.7656h-2.6406v-3.4844h0.92188c1.0078 0 1.7031-0.23047 2.0781-0.6875 0.38281-0.46094 0.57812-1.3555 0.57812-2.6875zm0-6.4844h5.3125v4.3438h-5.3125z"
         id="path32" />
    </symbol>
    <symbol
       id="u"
       overflow="visible">
      <path
         d="m15.562-16.125v4.0469c-1.1484-0.47656-2.25-0.83594-3.3125-1.0781-1.0547-0.23828-2.0469-0.35938-2.9844-0.35938-1.0117 0-1.7656 0.13281-2.2656 0.39062-0.49219 0.25-0.73438 0.63672-0.73438 1.1562 0 0.42969 0.1875 0.75781 0.5625 0.98438 0.375 0.23047 1.0391 0.39844 2 0.5l0.9375 0.14062c2.7188 0.34375 4.5469 0.91406 5.4844 1.7031 0.94531 0.79297 1.4219 2.0391 1.4219 3.7344 0 1.7734-0.65625 3.1055-1.9688 4-1.3047 0.89844-3.25 1.3438-5.8438 1.3438-1.1055 0-2.2461-0.089844-3.4219-0.26562-1.168-0.17578-2.3711-0.4375-3.6094-0.78125v-4.0469c1.0625 0.52344 2.1484 0.91406 3.2656 1.1719 1.1133 0.25 2.2422 0.375 3.3906 0.375 1.0391 0 1.8203-0.14062 2.3438-0.42188 0.53125-0.28906 0.79688-0.71875 0.79688-1.2812 0-0.47656-0.18359-0.83203-0.54688-1.0625-0.36719-0.23828-1.0859-0.42188-2.1562-0.54688l-0.9375-0.125c-2.375-0.28906-4.0391-0.83594-4.9844-1.6406-0.94922-0.80078-1.4219-2.0195-1.4219-3.6562 0-1.7578 0.60156-3.0664 1.8125-3.9219 1.207-0.85156 3.0625-1.2812 5.5625-1.2812 0.97656 0 2.0039 0.078125 3.0781 0.23438 1.082 0.14844 2.2578 0.375 3.5312 0.6875z"
         id="path35" />
    </symbol>
    <symbol
       id="t"
       overflow="visible">
      <path
         d="m2.7969-22.188h5.7188v8.0938l8.25-8.0938h6.6406l-10.688 10.5 11.781 11.688h-7.1562l-8.8281-8.7344v8.7344h-5.7188z"
         id="path38" />
    </symbol>
    <symbol
       id="s"
       overflow="visible">
      <path
         d="m2.5625-16.641h5.3125v16.641h-5.3125zm0-6.4844h5.3125v4.3438h-5.3125z"
         id="path41" />
    </symbol>
    <symbol
       id="g"
       overflow="visible">
      <path
         d="m17.984-13.875c0.67578-1.0312 1.4727-1.8164 2.3906-2.3594 0.92578-0.53906 1.9453-0.8125 3.0625-0.8125 1.9141 0 3.375 0.58984 4.375 1.7656 1 1.1797 1.5 2.8906 1.5 5.1406v10.141h-5.3594v-8.6719c0.007813-0.13281 0.015625-0.26953 0.015625-0.40625 0.007812-0.13281 0.015625-0.33203 0.015625-0.59375 0-1.1758-0.17188-2.0312-0.51562-2.5625s-0.90625-0.79688-1.6875-0.79688c-1.0117 0-1.793 0.41797-2.3438 1.25-0.54297 0.83594-0.82422 2.0391-0.84375 3.6094v8.1719h-5.3594v-8.6719c0-1.8438-0.15625-3.0312-0.46875-3.5625s-0.875-0.79688-1.6875-0.79688c-1.0234 0-1.8125 0.42188-2.375 1.2656-0.55469 0.83594-0.82812 2.0273-0.82812 3.5781v8.1875h-5.3438v-16.641h5.3438v2.4375c0.65625-0.94531 1.4062-1.6562 2.25-2.125 0.85156-0.47656 1.7891-0.71875 2.8125-0.71875 1.1445 0 2.1562 0.28125 3.0312 0.84375 0.88281 0.55469 1.5547 1.3281 2.0156 2.3281z"
         id="path44" />
    </symbol>
    <symbol
       id="r"
       overflow="visible">
      <path
         d="m13.516-23.125v3.5h-2.9531c-0.75 0-1.2773 0.13672-1.5781 0.40625-0.29297 0.27344-0.4375 0.74219-0.4375 1.4062v1.1719h4.5469v3.7969h-4.5469v12.844h-5.3281v-12.844h-2.6406v-3.7969h2.6406v-1.1719c0-1.8125 0.50391-3.1484 1.5156-4.0156 1.0078-0.86328 2.5781-1.2969 4.7031-1.2969z"
         id="path47" />
    </symbol>
    <symbol
       id="d"
       overflow="visible">
      <path
         d="m10.484-13.234c-1.1875 0-2.0938 0.42188-2.7188 1.2656-0.61719 0.84375-0.92188 2.0625-0.92188 3.6562s0.30469 2.8203 0.92188 3.6719c0.625 0.84375 1.5312 1.2656 2.7188 1.2656 1.1562 0 2.0391-0.42188 2.6562-1.2656 0.61328-0.85156 0.92188-2.0781 0.92188-3.6719s-0.30859-2.8125-0.92188-3.6562c-0.61719-0.84375-1.5-1.2656-2.6562-1.2656zm0-3.8125c2.8516 0 5.0859 0.77734 6.7031 2.3281 1.6133 1.543 2.4219 3.6797 2.4219 6.4062 0 2.7422-0.80859 4.8867-2.4219 6.4375-1.6172 1.543-3.8516 2.3125-6.7031 2.3125-2.875 0-5.125-0.76953-6.75-2.3125-1.6172-1.5508-2.4219-3.6953-2.4219-6.4375 0-2.7266 0.80469-4.8633 2.4219-6.4062 1.625-1.5508 3.875-2.3281 6.75-2.3281z"
         id="path50" />
    </symbol>
    <symbol
       id="q"
       overflow="visible">
      <path
         d="m19.297-10.141v10.141h-5.3594v-7.7344c0-1.4453-0.03125-2.4414-0.09375-2.9844-0.0625-0.55078-0.17188-0.95703-0.32812-1.2188-0.21094-0.34375-0.49609-0.60938-0.85938-0.79688-0.35547-0.19531-0.76172-0.29688-1.2188-0.29688-1.1055 0-1.9766 0.42969-2.6094 1.2812-0.63672 0.85547-0.95312 2.043-0.95312 3.5625v8.1875h-5.3125v-23.125h5.3125v8.9219c0.80078-0.97656 1.6484-1.6953 2.5469-2.1562 0.90625-0.45703 1.9062-0.6875 3-0.6875 1.9141 0 3.375 0.58984 4.375 1.7656 1 1.1797 1.5 2.8906 1.5 5.1406z"
         id="path53" />
    </symbol>
    <symbol
       id="p"
       overflow="visible">
      <path
         d="m2.7969-22.188h6.3906l8.0625 15.219v-15.219h5.4219v22.188h-6.3906l-8.0625-15.219v15.219h-5.4219z"
         id="path56" />
    </symbol>
    <symbol
       id="o"
       overflow="visible">
      <path
         d="m2.375-6.4844v-10.156h5.3594v1.6562c0 0.90625-0.007813 2.043-0.015625 3.4062-0.011719 1.3555-0.015625 2.2617-0.015625 2.7188 0 1.3438 0.03125 2.3125 0.09375 2.9062 0.070313 0.58594 0.19141 1.0078 0.35938 1.2656 0.21875 0.35547 0.50391 0.625 0.85938 0.8125 0.35156 0.1875 0.75391 0.28125 1.2031 0.28125 1.1133 0 1.9883-0.42578 2.625-1.2812 0.63281-0.85156 0.95312-2.0352 0.95312-3.5469v-8.2188h5.3125v16.641h-5.3125v-2.4062c-0.80469 0.96875-1.6562 1.6875-2.5625 2.1562-0.89844 0.45703-1.8828 0.6875-2.9531 0.6875-1.9297 0-3.3984-0.58594-4.4062-1.7656-1-1.1875-1.5-2.9062-1.5-5.1562z"
         id="path59" />
    </symbol>
    <symbol
       id="n"
       overflow="visible">
      <path
         d="m2.7969-22.188h9.5c2.8203 0 4.9883 0.63281 6.5 1.8906 1.5078 1.25 2.2656 3.0312 2.2656 5.3438 0 2.3359-0.75781 4.125-2.2656 5.375-1.5117 1.25-3.6797 1.875-6.5 1.875h-3.7812v7.7031h-5.7188zm5.7188 4.1406v6.2031h3.1719c1.1016 0 1.957-0.26953 2.5625-0.8125 0.60156-0.53906 0.90625-1.3047 0.90625-2.2969 0-0.98828-0.30469-1.75-0.90625-2.2812-0.60547-0.53906-1.4609-0.8125-2.5625-0.8125z"
         id="path62" />
    </symbol>
    <symbol
       id="m"
       overflow="visible">
      <path
         d="m16-16.125v4.3438c-0.71875-0.5-1.4453-0.86328-2.1719-1.0938-0.73047-0.23828-1.4844-0.35938-2.2656-0.35938-1.4922 0-2.6523 0.43359-3.4844 1.2969-0.82422 0.86719-1.2344 2.0742-1.2344 3.625 0 1.5625 0.41016 2.7773 1.2344 3.6406 0.83203 0.86719 1.9922 1.2969 3.4844 1.2969 0.83203 0 1.625-0.11719 2.375-0.35938 0.75-0.25 1.4375-0.61719 2.0625-1.1094v4.3594c-0.82422 0.30469-1.668 0.53125-2.5312 0.6875-0.85547 0.15625-1.7148 0.23438-2.5781 0.23438-3 0-5.3516-0.76953-7.0469-2.3125-1.6875-1.5391-2.5312-3.6875-2.5312-6.4375 0-2.7383 0.84375-4.8789 2.5312-6.4219 1.6953-1.5391 4.0469-2.3125 7.0469-2.3125 0.875 0 1.7344 0.078125 2.5781 0.23438 0.85156 0.14844 1.6953 0.375 2.5312 0.6875z"
         id="path65" />
    </symbol>
  </defs>
  <g
     id="g150"
     transform="matrix(1.0761516,0,0,1.0761516,-28.26091,47.940374)">
    <path
       d="m 378.11,36.488 c 1.1562,-0.64844 2.4961,-0.90625 3.8125,-0.72266 l 105.95,14.625 77.543,-7.293 c 1.2695,-0.12109 2.5469,0.16406 3.6484,0.80859 l 33.316,19.527 c 1.5625,0.91406 2.6367,2.4805 2.9297,4.2656 l 8.8867,54.219 18.676,47.824 c 0.27344,0.70703 0.41797,1.457 0.41797,2.2148 v 43.543 c 0,2.332 -1.332,4.457 -3.4297,5.4766 l -21.957,10.66 -11.906,19.977 18.133,11.738 c 1.6562,1.0703 2.6875,2.8711 2.7773,4.8398 l 1.3516,30.332 c 0.0898,2.082 -0.88672,4.0664 -2.5977,5.2578 l -5.2422,3.6641 7.4805,34.102 20.543,33.293 c 0.59375,0.96094 0.91016,2.0664 0.91016,3.1953 v 42.488 c 0,2.6289 -1.6914,4.9609 -4.1875,5.7812 l -15.324,5.0391 -60.176,72.301 4.3359,26.52 6.918,9.5781 c 0.75,1.0352 1.1523,2.2852 1.1523,3.5625 v 7.3945 c 0,4.2461 -4.2383,7.1875 -8.2148,5.6992 l -48.555,-18.133 c -1.5859,-0.59375 -2.8555,-1.8242 -3.5,-3.3945 l -4.6367,-11.316 -35.773,-7.4336 -9.7305,12.734 c -2.1602,2.8203 -6.2617,3.2031 -8.9023,0.83203 l -11.062,-9.9297 -25.902,3.9141 -2.7031,10.418 c -0.69531,2.6836 -3.1172,4.5586 -5.8906,4.5586 h -16.602 c -3.3594,0 -6.0859,-2.7227 -6.0859,-6.0859 v -16.508 l -13.984,-12.352 -24.703,14.824 c -2.9805,1.793 -6.8555,0.72266 -8.4961,-2.3438 l -9.1758,-17.125 -13.066,-24.453 -23.797,-11.281 -9.5508,5.6445 c -2.5547,1.5117 -5.832,0.95703 -7.7461,-1.3125 l -14.02,-16.594 c -1.4023,-1.6602 -1.8164,-3.9453 -1.0781,-5.9883 l 2.9492,-8.2148 -31.777,-7.7656 3.4297,9.8477 c 1.0938,3.1445 -0.54297,6.5859 -3.6719,7.7227 l -17.051,6.1914 c -2.1562,0.78125 -4.5703,0.28516 -6.2422,-1.2852 l -28.344,-26.609 c -2.7656,-2.5938 -2.5117,-7.0547 0.52734,-9.3203 l 8.082,-6.0195 -6.7031,-3.75 -49.102,-12.195 c -2.0977,-0.52344 -3.7617,-2.1133 -4.3711,-4.1875 l -3.8125,-12.918 h -13.07 c -3.6875,0 -6.5273,-3.2539 -6.0312,-6.9062 l 4.7656,-35.027 -11.703,-6.3477 c -1.4531,-0.78516 -2.5195,-2.1289 -2.9609,-3.7188 l -7.4141,-26.695 c -0.33594,-1.1992 -0.29297,-2.4727 0.12109,-3.6445 l 6.5977,-18.785 -8.918,-19.359 c -0.14453,-0.32031 -1.1445,-5.6719 -2.9961,-16.059 -0.20312,-1.1484 -0.06641,-2.332 0.38672,-3.4062 l 3.3672,-8.0039 -25.066,-22.203 c -1.3047,-1.1562 -2.0547,-2.8125 -2.0547,-4.5547 v -12.906 c 0,-1.8359 0.83203,-3.5742 2.2578,-4.7305 l 11.727,-9.5078 v -20.957 l -9.4375,-56.637 c -0.48438,-2.9219 1.207,-5.7734 4.0078,-6.75 l 112.03,-38.93 14.473,-21.773 c 0.96875,-1.457 2.5195,-2.4258 4.25,-2.6602 l 27.805,-3.7773 13.789,-13.348 c 0.95313,-0.92187 2.1758,-1.5078 3.4883,-1.668 l 66.164,-8.168 c 3.0742,-0.37891 5.9414,1.6055 6.6641,4.6133 l 9.4727,39.324 29.375,6.1094 z m -20.238,30.911423 c -1.2812,0.72266 -2.7812,0.95312 -4.2227,0.65234 0,0 -23.78198,-4.112791 -35.383,-7.3594 -3.01791,-0.84458 -8.40683,-0.831184 -8.86127,-3.141345 l -7.70774,-39.182855 -50.38687,7.2539 -13.758,13.32 c -0.93283,0.90313 -7.79813,-4.432257 -8.98952,-3.919223 l -21.48358,9.251223 -14.086,21.188 c -0.73828,1.1094 -3.21025,1.9453 -4.46415,2.3828 l -107.726147,37.917997 10.069655,42.30901 0.08203,25.363 c 0,1.8359 -0.82812,3.5742 -2.2539,4.7305 l -11.73,9.5078 v 7.2617 l 26.285002,23.281 c 1.9531,1.7305 2.5859,4.5117 1.5742,6.918 l -4.3711,10.383 2.0898,12.016 9.6133,20.879 c 0.66406,1.4336 0.73828,3.0703 0.21484,4.5625 l -6.7812,19.305 6.2109,22.359 13.129,7.1211 c 2.2227,1.207 3.4688,3.6641 3.1289,6.1719 l -4.3906,32.281 3.67872,4.18157 c 1.78288,2.02658 5.0742,1.7773 5.8398,4.3672 l 9.68872,9.75643 42.32644,10.15715 c 0.35156,0.0898 7.44855,3.1992 18.50685,9.3359 3.8477,2.1523 4.1992,13.13402 0.66406,15.76642 l -5.59573,7.2852 14.74058,13.49458 2.31127,-1.46945 -3.73894,-13.35214 c -1.5859,-4.5547 5.29551,-11.84631 9.97911,-10.70181 l 54.80242,12.031 c 3.5117,0.85938 5.5039,4.5703 4.2812,7.9727 l -4.0547,11.273 2.86208,15.55982 13.47772,-10.24732 c 1.7422,-1.0273 3.8789,-1.125 5.707,-0.26172 l 28.535,13.527 c 1.1758,0.55859 2.1445,1.4805 2.7578,2.6328 0,0 9.3369,17.4817 14.012,26.219 2.04883,3.82904 3.36459,11.484 3.36459,11.484 l 20.25529,-13.828 c 2.2734,-1.3672 5.1719,-1.1016 7.1602,0.65625 l 19.387,17.117 c 1.3086,1.1562 2.0547,2.8203 2.0547,4.5625 v 13.168 h 5.8047 l 2.5273,-4.17458 c 0.61328,-2.3594 2.5742,-6.91661 4.9844,-7.27991 l 32.719,-7.72911 c 1.7969,-0.27344 3.6211,0.27344 4.9727,1.4883 l 8.2969,7.4453 5.27089,-10.543 c 1.418,-1.8594 6.56891,-2.7383 8.86191,-2.2617 l 42.684,8.8711 c 1.9805,0.41406 3.6289,0.38734 4.3945,2.25844 l 4.8555,13.24186 28.87758,12.789 2.35662,1.12232 c -0.55078,-0.76562 -6.4971,-7.22776 -6.64962,-8.16132 l -5.0117,-30.676 c -0.28516,-1.7383 0.19922,-3.5195 1.3281,-4.875 l 63.07,-74.38315 c 0.73047,-0.87891 1.6914,-2.92505 2.7773,-3.28445 l 12.797,-4.207 v -30.77958 l -20.18,-27.12758 c -0.35938,-0.58203 -2.01495,-4.01041 -2.15948,-4.67831 l -8.5703,-41.86971 c -0.52734,-2.4023 7.41069,-4.8867 9.42628,-6.293 l -1.14118,-4.0742 0.33136,-18.27658 -20.426,-13.219 c -2.75,-1.7773 -3.5977,-10.98952 -1.9219,-13.80202 l 15.84,-27.97586 c 0.60937,-1.0195 2.89385,-4.62751 3.96415,-5.14711 l 18.77415,-5.61143 v -38.582 l -18.492,-41.77958 -4.68174,-51.864142 -27.76214,-18.483855 -76.293,7.1758 c -0.3125,0.03125 -35.652,-4.793 -106.02,-14.473 z"
       fill-rule="evenodd"
       id="path70"
       sodipodi:nodetypes="cccccccccssccccccccccsscccccssccccccccccsssccccccccccccccccccccccccsccccccccccccssccccccccccccccccccasccssccccccccccccccccccccsccccccccccccccccccsccccsccccccccccccccscccccccccccccccccccccccc" />
  </g>
</svg>
