<?xml version="1.0" encoding="UTF-8" standalone="no"?>
<svg
   width="400pt"
   height="700pt"
   version="1.1"
   viewBox="0 0 400 700"
   id="svg134"
   sodipodi:docname="security.svg"
   inkscape:version="1.1 (c68e22c387, 2021-05-23)"
   xmlns:inkscape="http://www.inkscape.org/namespaces/inkscape"
   xmlns:sodipodi="http://sodipodi.sourceforge.net/DTD/sodipodi-0.dtd"
   xmlns="http://www.w3.org/2000/svg"
   xmlns:svg="http://www.w3.org/2000/svg">
  <sodipodi:namedview
     id="namedview136"
     pagecolor="#ffffff"
     bordercolor="#666666"
     borderopacity="1.0"
     inkscape:pageshadow="2"
     inkscape:pageopacity="0.0"
     inkscape:pagecheckerboard="0"
     inkscape:document-units="pt"
     showgrid="false"
     inkscape:zoom="0.31213714"
     inkscape:cx="70.48184"
     inkscape:cy="735.25374"
     inkscape:window-width="1920"
     inkscape:window-height="1009"
     inkscape:window-x="-8"
     inkscape:window-y="-8"
     inkscape:window-maximized="1"
     inkscape:current-layer="g132"
     width="300pt" />
  <defs
     id="defs62">
    <symbol
       id="t"
       overflow="visible">
      <path
         d="m 26.438,-1.5781 c -1.3672,0.71094 -2.7891,1.2422 -4.2656,1.5938 -1.4688,0.36328 -3.0078,0.54688 -4.6094,0.54688 -4.793,0 -8.5898,-1.3359 -11.391,-4.0156 -2.8047,-2.6875 -4.2031,-6.3203 -4.2031,-10.906 0,-4.5938 1.3984,-8.2266 4.2031,-10.906 2.8008,-2.6875 6.5977,-4.0312 11.391,-4.0312 1.6016,0 3.1406,0.18359 4.6094,0.54688 1.4766,0.35547 2.8984,0.88672 4.2656,1.5938 v 5.9531 c -1.375,-0.9375 -2.7305,-1.625 -4.0625,-2.0625 -1.3359,-0.4375 -2.7422,-0.65625 -4.2188,-0.65625 -2.6484,0 -4.7305,0.85156 -6.25,2.5469 -1.5117,1.6992 -2.2656,4.0391 -2.2656,7.0156 0,2.9688 0.75391,5.3047 2.2656,7 1.5195,1.6992 3.6016,2.5469 6.25,2.5469 1.4766,0 2.8828,-0.21875 4.2188,-0.65625 1.332,-0.4375 2.6875,-1.125 4.0625,-2.0625 z"
         id="path2" />
    </symbol>
    <symbol
       id="c"
       overflow="visible">
      <path
         d="m 19.344,-15.703 c -0.60547,-0.28125 -1.2031,-0.48828 -1.7969,-0.625 -0.59375,-0.13281 -1.1953,-0.20312 -1.7969,-0.20312 -1.7812,0 -3.1523,0.57031 -4.1094,1.7031 -0.94922,1.1367 -1.4219,2.7656 -1.4219,4.8906 V 8e-5 H 3.3127 v -21.578 h 6.9062 v 3.5469 c 0.88281,-1.4141 1.8984,-2.4453 3.0469,-3.0938 1.1562,-0.65625 2.5352,-0.98438 4.1406,-0.98438 0.22656,0 0.47656,0.01172 0.75,0.03125 0.26953,0.02344 0.66016,0.0625 1.1719,0.125 z"
         id="path5" />
    </symbol>
    <symbol
       id="b"
       overflow="visible">
      <path
         d="m 24.859,-10.844 v 1.9531 H 8.734 c 0.16406,1.625 0.75,2.8438 1.75,3.6562 1,0.80469 2.3984,1.2031 4.2031,1.2031 1.4453,0 2.9297,-0.21094 4.4531,-0.64062 1.5312,-0.42578 3.0977,-1.0781 4.7031,-1.9531 v 5.3125 c -1.6367,0.61719 -3.2734,1.0781 -4.9062,1.3906 -1.625,0.32031 -3.2578,0.48438 -4.8906,0.48438 -3.9062,0 -6.9453,-0.98828 -9.1094,-2.9688 -2.1562,-1.9883 -3.2344,-4.7734 -3.2344,-8.3594 0,-3.5195 1.0625,-6.2891 3.1875,-8.3125 2.125,-2.0195 5.0469,-3.0312 8.7656,-3.0312 3.3945,0 6.1094,1.0273 8.1406,3.0781 2.0391,2.043 3.0625,4.7734 3.0625,8.1875 z m -7.0938,-2.2969 c 0,-1.3125 -0.38672,-2.3672 -1.1562,-3.1719 -0.76172,-0.80078 -1.7578,-1.2031 -2.9844,-1.2031 -1.3359,0 -2.4219,0.375 -3.2656,1.125 -0.83594,0.75 -1.3516,1.8359 -1.5469,3.25 z"
         id="path8" />
    </symbol>
    <symbol
       id="k"
       overflow="visible">
      <path
         d="m 12.984,-9.7188 c -1.4375,0 -2.5234,0.24609 -3.25,0.73438 -0.71875,0.49219 -1.0781,1.2109 -1.0781,2.1562 0,0.875 0.28906,1.5625 0.875,2.0625 0.58203,0.49219 1.3945,0.73438 2.4375,0.73438 1.3008,0 2.3945,-0.46094 3.2812,-1.3906 0.88281,-0.9375 1.3281,-2.1016 1.3281,-3.5 v -0.79688 z m 10.547,-2.5938 V -6e-4 h -6.9531 v -3.2031 c -0.92969,1.3125 -1.9688,2.2734 -3.125,2.875 -1.1562,0.59375 -2.5625,0.89062 -4.2188,0.89062 -2.2422,0 -4.0586,-0.64844 -5.4531,-1.9531 -1.3867,-1.3125 -2.0781,-3.0039 -2.0781,-5.0781 0,-2.5312 0.86719,-4.3828 2.6094,-5.5625 1.7383,-1.1875 4.4688,-1.7812 8.1875,-1.7812 h 4.0781 v -0.54688 c 0,-1.0938 -0.43359,-1.8906 -1.2969,-2.3906 -0.86719,-0.50781 -2.2109,-0.76562 -4.0312,-0.76562 -1.4805,0 -2.8555,0.15234 -4.125,0.45312 -1.2734,0.29297 -2.4531,0.73047 -3.5469,1.3125 v -5.25 c 1.4766,-0.36328 2.9609,-0.64062 4.4531,-0.82812 1.4883,-0.1875 2.9766,-0.28125 4.4688,-0.28125 3.8945,0 6.707,0.77344 8.4375,2.3125 1.7266,1.5312 2.5938,4.0273 2.5938,7.4844 z"
         id="path11" />
    </symbol>
    <symbol
       id="d"
       overflow="visible">
      <path
         d="m 10.844,-27.719 v 6.1406 h 7.125 v 4.9219 h -7.125 v 9.1562 c 0,1 0.19531,1.6797 0.59375,2.0312 0.40625,0.35547 1.1953,0.53125 2.375,0.53125 h 3.5469 v 4.9375 h -5.9062 c -2.7305,0 -4.6641,-0.56641 -5.7969,-1.7031 -1.1367,-1.1328 -1.7031,-3.0664 -1.7031,-5.7969 v -9.1562 h -3.4375 v -4.9219 h 3.4375 v -6.1406 z"
         id="path14" />
    </symbol>
    <symbol
       id="j"
       overflow="visible">
      <path
         d="m 18,-18.422 v -11.562 h 6.9375 V 0 H 18 v -3.125 c -0.94922,1.2734 -1.9961,2.2031 -3.1406,2.7969 -1.1484,0.59375 -2.4688,0.89062 -3.9688,0.89062 -2.6562,0 -4.8438,-1.0547 -6.5625,-3.1719 -1.7109,-2.1133 -2.5625,-4.832 -2.5625,-8.1562 0,-3.332 0.85156,-6.0547 2.5625,-8.1719 1.7188,-2.1133 3.9062,-3.1719 6.5625,-3.1719 1.4883,0 2.8047,0.30469 3.9531,0.90625 1.1562,0.59375 2.207,1.5234 3.1562,2.7812 z m -4.5469,13.969 c 1.4766,0 2.6016,-0.53516 3.375,-1.6094 C 17.60935,-7.1444 18,-8.7108 18,-10.7655 c 0,-2.0625 -0.39062,-3.6289 -1.1719,-4.7031 -0.77344,-1.082 -1.8984,-1.625 -3.375,-1.625 -1.4688,0 -2.5938,0.54297 -3.375,1.625 -0.77344,1.0742 -1.1562,2.6406 -1.1562,4.7031 0,2.0547 0.38281,3.6211 1.1562,4.7031 0.78125,1.0742 1.9062,1.6094 3.375,1.6094 z"
         id="path17" />
    </symbol>
    <symbol
       id="i"
       overflow="visible">
      <path
         d="m 14.797,-4.4531 c 1.4766,0 2.6016,-0.53516 3.375,-1.6094 0.78125,-1.082 1.1719,-2.6484 1.1719,-4.7031 0,-2.0625 -0.39062,-3.6289 -1.1719,-4.7031 -0.77344,-1.082 -1.8984,-1.625 -3.375,-1.625 -1.4805,0 -2.6172,0.54297 -3.4062,1.625 -0.78125,1.0859 -1.1719,2.6523 -1.1719,4.7031 0,2.043 0.39062,3.6055 1.1719,4.6875 0.78906,1.0859 1.9258,1.625 3.4062,1.625 z m -4.5781,-13.969 c 0.94531,-1.2578 2,-2.1875 3.1562,-2.7812 1.1562,-0.60156 2.4844,-0.90625 3.9844,-0.90625 2.6641,0 4.8516,1.0586 6.5625,3.1719 1.707,2.1172 2.5625,4.8398 2.5625,8.1719 0,3.3242 -0.85547,6.043 -2.5625,8.1562 -1.7109,2.1172 -3.8984,3.1719 -6.5625,3.1719 -1.5,0 -2.8281,-0.29688 -3.9844,-0.89062 -1.1562,-0.60156 -2.2109,-1.5352 -3.1562,-2.7969 v 3.125 H 3.3127 v -29.984 h 6.9062 z"
         id="path20" />
    </symbol>
    <symbol
       id="h"
       overflow="visible">
      <path
         d="m 0.48438,-21.578 h 6.8906 l 5.8125,14.641 4.9219,-14.641 h 6.9062 l -9.0781,23.625 c -0.91797,2.3945 -1.9844,4.0703 -3.2031,5.0312 -1.2109,0.95703 -2.8086,1.4375 -4.7969,1.4375 H 3.95308 V 3.9845 h 2.1562 c 1.1641,0 2.0156,-0.1875 2.5469,-0.5625 0.53906,-0.36719 0.95703,-1.0312 1.25,-2 l 0.1875,-0.59375 z"
         id="path23" />
    </symbol>
    <symbol
       id="g"
       overflow="visible">
      <path
         d="m 1.1719,-28.766 h 7.1094 l 4.9844,20.906 4.9219,-20.906 h 7.1562 l 4.9375,20.906 4.9688,-20.906 H 42.297 L 35.5158,0 H 26.9689 L 21.7345,-21.875 16.5783,0 H 8.0158 Z"
         id="path26" />
    </symbol>
    <symbol
       id="a"
       overflow="visible">
      <path
         d="m 13.594,-17.172 c -1.5312,0 -2.6992,0.55469 -3.5,1.6562 -0.80469,1.0938 -1.2031,2.6797 -1.2031,4.75 0,2.0625 0.39844,3.6484 1.2031,4.75 0.80078,1.0938 1.9688,1.6406 3.5,1.6406 1.5,0 2.6445,-0.54688 3.4375,-1.6406 0.80078,-1.1016 1.2031,-2.6875 1.2031,-4.75 0,-2.0703 -0.40234,-3.6562 -1.2031,-4.75 -0.79297,-1.1016 -1.9375,-1.6562 -3.4375,-1.6562 z m 0,-4.9375 c 3.707,0 6.6016,1.0078 8.6875,3.0156 2.0938,2 3.1406,4.7773 3.1406,8.3281 0,3.543 -1.0469,6.3203 -3.1406,8.3281 -2.0859,2 -4.9805,3 -8.6875,3 -3.7305,0 -6.6484,-1 -8.75,-3 -2.0938,-2.0078 -3.1406,-4.7852 -3.1406,-8.3281 0,-3.5508 1.0469,-6.3281 3.1406,-8.3281 2.1016,-2.0078 5.0195,-3.0156 8.75,-3.0156 z"
         id="path29" />
    </symbol>
    <symbol
       id="f"
       overflow="visible">
      <path
         d="M 25.016,-13.141 V 0 h -6.9375 v -10.062 c 0,-1.8633 -0.04297,-3.1445 -0.125,-3.8438 -0.08594,-0.70703 -0.23047,-1.2266 -0.4375,-1.5625 -0.27344,-0.45703 -0.64062,-0.8125 -1.1094,-1.0625 -0.46094,-0.25 -0.98047,-0.375 -1.5625,-0.375 -1.4375,0 -2.5703,0.55859 -3.3906,1.6719 -0.82422,1.1172 -1.2344,2.6523 -1.2344,4.6094 V 5e-4 H 3.3129 v -21.578 h 6.9062 v 3.1562 c 1.0391,-1.2578 2.1445,-2.1875 3.3125,-2.7812 1.1641,-0.60156 2.457,-0.90625 3.875,-0.90625 2.4883,0 4.3789,0.76562 5.6719,2.2969 1.2891,1.5312 1.9375,3.7578 1.9375,6.6719 z"
         id="path32" />
    </symbol>
    <symbol
       id="e"
       overflow="visible">
      <path
         d="m 23.312,-18 c 0.875,-1.332 1.9102,-2.3477 3.1094,-3.0469 1.207,-0.70703 2.5312,-1.0625 3.9688,-1.0625 2.4766,0 4.3633,0.76562 5.6562,2.2969 1.3008,1.5312 1.9531,3.7578 1.9531,6.6719 V 4e-4 H 31.062 v -11.25 c 0.0078,-0.16406 0.01953,-0.33594 0.03125,-0.51562 0.0078,-0.1875 0.01563,-0.44531 0.01563,-0.78125 0,-1.5312 -0.23047,-2.6406 -0.6875,-3.3281 -0.44922,-0.6875 -1.1719,-1.0312 -2.1719,-1.0312 -1.3125,0 -2.3281,0.54297 -3.0469,1.625 -0.71094,1.0859 -1.0742,2.6484 -1.0938,4.6875 v 10.594 h -6.9375 v -11.25 c 0,-2.3945 -0.21094,-3.9375 -0.625,-4.625 -0.40625,-0.6875 -1.1367,-1.0312 -2.1875,-1.0312 -1.3242,0 -2.3438,0.54688 -3.0625,1.6406 -0.71875,1.0859 -1.0781,2.6328 -1.0781,4.6406 v 10.625 h -6.9375 v -21.578 h 6.9375 v 3.1562 c 0.84375,-1.2188 1.8125,-2.1328 2.9062,-2.75 1.1016,-0.625 2.3164,-0.9375 3.6406,-0.9375 1.4883,0 2.8047,0.35938 3.9531,1.0781 1.1445,0.71875 2.0078,1.7305 2.5938,3.0312 z"
         id="path35" />
    </symbol>
    <symbol
       id="s"
       overflow="visible">
      <path
         d="m 3.625,-28.766 h 7.4219 v 10.5 l 10.688,-10.5 h 8.625 L 16.5009,-15.141 31.7819,0 H 22.485 L 11.047,-11.328 V 0 H 3.6251 Z"
         id="path38" />
    </symbol>
    <symbol
       id="r"
       overflow="visible">
      <path
         d="m 17.516,-29.984 v 4.5312 h -3.8125 c -0.98047,0 -1.6641,0.17969 -2.0469,0.53125 -0.38672,0.35547 -0.57812,0.96484 -0.57812,1.8281 v 1.5156 h 5.9062 v 4.9219 h -5.9062 V 5e-5 h -6.8906 v -16.656 h -3.4375 v -4.9219 h 3.4375 v -1.5156 c 0,-2.3438 0.64844,-4.0781 1.9531,-5.2031 1.3125,-1.125 3.3438,-1.6875 6.0938,-1.6875 z"
         id="path41" />
    </symbol>
    <symbol
       id="q"
       overflow="visible">
      <path
         d="M 25.016,-13.141 V 0 h -6.9375 v -10.016 c 0,-1.8945 -0.04297,-3.1914 -0.125,-3.8906 -0.08594,-0.70703 -0.23047,-1.2266 -0.4375,-1.5625 -0.27344,-0.45703 -0.64062,-0.8125 -1.1094,-1.0625 -0.46094,-0.25 -0.98047,-0.375 -1.5625,-0.375 -1.4375,0 -2.5703,0.55859 -3.3906,1.6719 -0.82422,1.1172 -1.2344,2.6523 -1.2344,4.6094 V -3e-4 H 3.3129 v -29.984 h 6.9062 v 11.562 c 1.0391,-1.2578 2.1445,-2.1875 3.3125,-2.7812 1.1641,-0.60156 2.457,-0.90625 3.875,-0.90625 2.4883,0 4.3789,0.76562 5.6719,2.2969 1.2891,1.5312 1.9375,3.7578 1.9375,6.6719 z"
         id="path44" />
    </symbol>
    <symbol
       id="p"
       overflow="visible">
      <path
         d="m 3.625,-28.766 h 8.2812 l 10.469,19.734 v -19.734 h 7.0312 V 0 H 21.1252 L 10.6562,-19.734 V 0 H 3.625 Z"
         id="path47" />
    </symbol>
    <symbol
       id="o"
       overflow="visible">
      <path
         d="m 3.0781,-8.4062 v -13.172 h 6.9375 v 2.1562 c 0,1.168 -0.0078,2.6367 -0.015625,4.4062 -0.011719,1.7617 -0.015625,2.9375 -0.015625,3.5312 0,1.7305 0.039063,2.9805 0.125,3.75 0.09375,0.76172 0.25,1.3125 0.46875,1.6562 0.28125,0.46094 0.64844,0.8125 1.1094,1.0625 0.45703,0.24219 0.98438,0.35938 1.5781,0.35938 1.4375,0 2.5664,-0.55078 3.3906,-1.6562 0.82031,-1.1133 1.2344,-2.6484 1.2344,-4.6094 v -10.656 h 6.8906 v 21.578 h -6.8906 v -3.125 c -1.043,1.2617 -2.1484,2.1953 -3.3125,2.7969 -1.168,0.59375 -2.4492,0.89062 -3.8438,0.89062 -2.4922,0 -4.3906,-0.76562 -5.7031,-2.2969 C 3.7265,-3.2657 3.0781,-5.4884 3.0781,-8.4064 Z"
         id="path50" />
    </symbol>
    <symbol
       id="n"
       overflow="visible">
      <path
         d="m 3.625,-28.766 h 12.312 c 3.6641,0 6.4766,0.8125 8.4375,2.4375 1.957,1.625 2.9375,3.9375 2.9375,6.9375 0,3.0234 -0.98047,5.3438 -2.9375,6.9688 -1.9609,1.625 -4.7734,2.4375 -8.4375,2.4375 H 11.0464 V -3e-4 H 3.6245 Z m 7.4219,5.375 v 8.0312 h 4.0938 c 1.4453,0 2.5625,-0.34766 3.3438,-1.0469 0.78125,-0.69531 1.1719,-1.6914 1.1719,-2.9844 0,-1.2812 -0.39062,-2.2656 -1.1719,-2.9531 -0.78125,-0.69531 -1.8984,-1.0469 -3.3438,-1.0469 z"
         id="path53" />
    </symbol>
    <symbol
       id="m"
       overflow="visible">
      <path
         d="m 3.3125,-21.578 h 6.9062 V -0.39 c 0,2.8945 -0.69922,5.1016 -2.0938,6.625 C 6.7382,7.7545 4.7265,8.5162 2.0937,8.5162 H -1.3125 V 3.985 h 1.2031 c 1.3008,0 2.1953,-0.29688 2.6875,-0.89062 0.48828,-0.58594 0.73438,-1.7461 0.73438,-3.4844 z m 0,-8.4062 h 6.9062 v 5.625 H 3.3125 Z"
         id="path56" />
    </symbol>
    <symbol
       id="l"
       overflow="visible">
      <path
         d="m 20.75,-20.906 v 5.625 c -0.9375,-0.64453 -1.8828,-1.1172 -2.8281,-1.4219 -0.9375,-0.3125 -1.9141,-0.46875 -2.9219,-0.46875 -1.9297,0 -3.4297,0.5625 -4.5,1.6875 -1.0742,1.125 -1.6094,2.6992 -1.6094,4.7188 0,2.0117 0.53516,3.5781 1.6094,4.7031 1.0703,1.125 2.5703,1.6875 4.5,1.6875 1.0703,0 2.0938,-0.16016 3.0625,-0.48438 0.96875,-0.32031 1.8633,-0.79688 2.6875,-1.4219 v 5.6406 C 19.6758,-0.23418 18.582,0.0666 17.4688,0.26582 16.3516,0.46113 15.2383,0.5627 14.125,0.5627 c -3.8984,0 -6.9453,-1 -9.1406,-3 -2.1875,-2 -3.2812,-4.7734 -3.2812,-8.3281 0,-3.5625 1.0938,-6.3438 3.2812,-8.3438 2.1953,-2 5.2422,-3 9.1406,-3 1.1328,0 2.25,0.10547 3.3438,0.3125 1.1016,0.19922 2.1953,0.49609 3.2812,0.89062 z"
         id="path59" />
    </symbol>
  </defs>
  <g
     id="g132">
    <path
       id="path66"
       style="stroke-width:1.07664"
       d="m 195.62109,51.957057 c -9.70369,0.06011 -18.47282,3.031242 -25.99365,8.409668 h -0.001 c -14.05971,10.046814 -20.31714,19.88667 -10.89405,27.254883 -16.3191,11.155386 -24.29548,19.791122 -28.68457,41.409672 -6.00278,29.56683 25.22965,54.90158 55.89697,54.40869 30.21388,-0.48612 52.28838,-9.13549 52.93506,-38.72022 0.86211,-0.24903 1.68277,-0.758 2.31299,-1.53662 1.51364,-1.87008 1.37138,-4.49499 -0.31787,-5.8623 l -48.65332,-39.380863 0.004,-0.0029 c 3.15897,0.538793 5.89683,0.877504 8.24708,1.0708 l 44.06542,35.666023 c 6.0145,-4.54878 11.50857,-9.83941 16.28321,-15.73829 8.84069,-10.92232 8.01076,-26.252709 -1.8545,-34.237791 L 243.18164,71.921413 C 225.98218,57.999901 209.80342,51.869199 195.62109,51.957057 Z m 39.54785,45.848145 5.98975,3.420408 6.646,-3.394041 -1.91895,7.218751 4.57764,5.13428 -7.1543,1.02099 -3.81152,6.55518 -2.50635,-6.56836 -6.94629,-1.08252 5.61621,-5.09472 z M 109.45312,169.56057 C 82.171275,194.04794 73.708067,252.6369 76.561522,348.29348 L 47.071289,450.2803 c -0.52571,2.0313 -0.08467,4.18933 1.193848,5.85058 1.278529,1.66125 3.255109,2.63731 5.349609,2.64991 h 18.697266 l -24.559571,99.77783 10.964355,23.88428 -18.786621,81.16552 h 85.416505 v -16.9995 l -24.98584,-13.59669 10.03125,-38.83887 18.69726,-16.40185 14.96046,-45.13037 16.9995,45.72363 16.99805,11.04932 22.35352,74.6206 h 76.49268 l -0.0103,-18.10107 -32.04346,-15.30176 -13.00342,-47.16943 16.99952,-18.86572 -32.12696,-105.6416 h 7.22461 c 2.09438,-0.0126 4.07099,-0.99167 5.34961,-2.65284 1.27861,-1.66118 1.72104,-3.81909 1.19532,-5.84619 L 212.4917,388.05227 c 0.98752,0.47226 2.00773,0.83082 2.86963,0.61817 l 21.41308,-7.22315 16.33594,30.91992 c 1.68961,3.19797 4.97762,5.55118 8.77148,6.27686 l 13.00635,2.67481 c 3.79194,0.72211 7.08195,3.07898 8.77149,6.27685 l 35.77002,67.70361 c 2.25345,4.26518 7.95689,6.02194 12.21826,3.77051 l 7.46338,-3.94336 31.54394,59.70557 c 1.12575,2.13075 3.28922,2.35209 4.88819,1.50732 l 11.72754,-6.19629 c 1.6254,0.50165 2.37994,-1.94155 1.53515,-3.54052 l 0.003,-10e-4 -72.94775,-138.07031 12.7954,-6.76026 5.91504,11.19727 -1.0664,0.56397 c -1.59898,0.8448 -2.10308,2.47474 -1.2583,4.07373 l 2.81689,5.33349 c 0.8448,1.59899 2.47622,2.10164 4.0752,1.25684 l 17.06103,-9.01318 c 1.59899,-0.8448 2.10163,-2.47622 1.25684,-4.0752 l -2.81689,-5.33203 c -0.84479,-1.59899 -2.47621,-2.10309 -4.0752,-1.25831 l -1.0664,0.56397 -42.2505,-79.96728 1.06788,-0.56397 c 1.59897,-0.84479 2.10162,-2.47475 1.25683,-4.07373 l -2.81689,-5.33349 c -0.84479,-1.59898 -2.47623,-2.10164 -4.0752,-1.25684 l -17.05957,9.01319 c -1.59898,0.8448 -2.1031,2.47621 -1.2583,4.07519 l 2.8169,5.33203 c 0.8448,1.59899 2.47621,2.10307 4.07519,1.2583 l 1.06787,-0.56396 5.91504,11.19726 -12.79541,6.75879 -20.8418,-39.44824 c -2.25347,-4.26518 -5.82335,-7.15012 -10.46191,-9.47461 l -20.96192,-8.69824 c -3.53938,-1.54047 -6.83179,-3.89176 -9.33398,-7.34033 l -10.27441,-15.12598 v -46.14698 c 0,-6.33366 -2.52,-12.41122 -6.99903,-16.89111 -4.47903,-4.47904 -10.55117,-6.99316 -16.88525,-6.99316 H 169.7945 c -14.73273,-15.88043 -34.14133,-26.65619 -55.41357,-30.76465 -1.61916,-0.34065 -3.2708,-0.50851 -4.92774,-0.5127 z m -7.229,21.33252 h 2.46386 v 0.004 c 12.31782,0.0168 24.28363,4.10076 34.04444,11.61181 9.43439,7.26696 16.26275,17.36229 19.56592,28.78418 l -6.18311,3.26661 -0.085,-0.32081 c -2.76728,-10.50142 -8.93986,-19.78747 -17.55761,-26.40234 -8.61311,-6.61542 -19.17764,-10.18183 -30.03662,-10.14404 v 0.001 h -2.21192 z m 64.23194,108.61817 8.61621,9.92139 c -0.83174,1.01361 -1.71287,1.98566 -2.64405,2.91064 -4.14678,4.55054 -9.14307,8.24753 -14.70264,10.87646 l -5.52685,-19.71533 z m 15.99902,22.85742 7.39306,28.13232 -6.62402,1.78272 -6.45996,-24.73242 c 1.99622,-1.61402 3.9005,-3.34185 5.69092,-5.18262 z m 37.00781,29.58691 c 0.93427,-0.0459 1.95455,0.4372 2.37598,1.23487 l 9.85986,18.65917 -15.51709,5.47266 -10.13965,-19.19091 12.54053,-5.94581 c 0.2668,-0.14096 0.56895,-0.21467 0.88037,-0.22998 z m 84.97265,3.97119 18.02491,34.11768 -12.79395,6.76025 -18.02636,-34.11767 z" />
  </g>
</svg>
